<?xml version="1.0" encoding="utf-8"?>
<!-- Generator: Adobe Illustrator 17.1.0, SVG Export Plug-In . SVG Version: 6.00 Build 0)  -->
<!DOCTYPE svg PUBLIC "-//W3C//DTD SVG 1.1//EN" "http://www.w3.org/Graphics/SVG/1.1/DTD/svg11.dtd">
<svg version="1.1" id="Capa_1" xmlns="http://www.w3.org/2000/svg" xmlns:xlink="http://www.w3.org/1999/xlink" x="0px" y="0px"
	 viewBox="0 0 398.3 81.8" enable-background="new 0 0 398.3 81.8" xml:space="preserve">
<g>
	<path fill="#B5C028" d="M0,46.5V9.4c0-4.9,3.8-8.7,8.7-8.7s8.7,3.8,8.7,8.7v36.7c0,12.9,6.4,19.5,17.1,19.5s17.1-6.4,17.1-19V9.4
		c0-4.9,3.8-8.7,8.7-8.7c4.9,0,8.7,3.8,8.7,8.7V46c0,23.9-13.4,35.7-34.7,35.7S0,69.8,0,46.5z"/>
	<path fill="#B5C028" d="M80.6,10.1c0-4.9,3.8-8.7,8.7-8.7h28c9,0,16.2,2.5,20.7,7c3.6,3.6,5.4,8,5.4,13.4V22
		c0,8.9-4.7,13.9-10.4,17.1c9.1,3.5,14.8,8.8,14.8,19.4v0.2c0,14.5-11.7,21.7-29.6,21.7H89.3c-4.9,0-8.7-3.8-8.7-8.7V10.1z
		 M113.6,33.3c7.7,0,12.5-2.5,12.5-8.4v-0.2c0-5.2-4.1-8.1-11.4-8.1H97.6v16.7H113.6z M118.3,65.2c7.7,0,12.3-2.7,12.3-8.6v-0.2
		c0-5.3-4-8.6-12.9-8.6H97.6v17.4H118.3z"/>
	<path fill="#B5C028" d="M158,9.4c0-4.9,3.8-8.7,8.7-8.7c4.9,0,8.7,3.8,8.7,8.7v63c0,4.9-3.8,8.7-8.7,8.7c-4.9,0-8.7-3.8-8.7-8.7
		V9.4z"/>
	<path fill="#B5C028" d="M185.6,41.1v-0.2c0-22.5,16.9-40.9,41.2-40.9c11.9,0,19.9,3.2,26.4,8c1.8,1.4,3.4,3.8,3.4,6.9
		c0,4.7-3.8,8.5-8.6,8.5c-2.4,0-4-0.9-5.2-1.7c-4.9-3.6-9.9-5.6-16.2-5.6c-13.3,0-22.9,11.1-22.9,24.6v0.2
		c0,13.6,9.4,24.9,22.9,24.9c7.3,0,12.2-2.3,17.2-6.2c1.4-1.1,3.2-1.9,5.2-1.9c4.4,0,8.1,3.6,8.1,8c0,2.7-1.4,4.9-2.9,6.2
		c-7.1,6.2-15.5,9.9-28.1,9.9C202.9,81.8,185.6,63.8,185.6,41.1z"/>
	<path fill="#B5C028" d="M267.5,9.4c0-4.9,3.8-8.7,8.7-8.7c4.9,0,8.7,3.8,8.7,8.7v55.2h19.2c4.4,0,7.9,3.5,7.9,7.9
		c0,4.4-3.5,7.9-7.9,7.9h-27.9c-4.9,0-8.7-3.8-8.7-8.7V9.4z"/>
	<path fill="#B5C028" d="M321,69.2L348.6,7c1.9-4.3,5.4-6.9,10.2-6.9h1c4.7,0,8.1,2.6,10.1,6.9l27.6,62.2c0.6,1.2,0.9,2.4,0.9,3.5
		c0,4.6-3.6,8.4-8.2,8.4c-4.1,0-6.8-2.4-8.4-6l-5.3-12.4h-34.8l-5.5,13c-1.5,3.4-4.4,5.4-8,5.4c-4.5,0-8-3.6-8-8.1
		C320,71.7,320.5,70.5,321,69.2z M369.9,47.3l-11-26.1l-11,26.1H369.9z"/>
</g>
<g>
	<path fill="#67666A" d="M5.9,46.2V9c0-1.5,1.2-2.7,2.7-2.7c1.4,0,2.7,1.2,2.7,2.7v36.7c0,17.1,8.1,25.4,23.3,25.4
		c14.6,0,22.9-7.4,22.9-24.9V9.7c0-1.5,1.2-2.7,2.7-2.7c1.4,0,2.7,1.2,2.7,2.7v35.9c0,20.8-11,30.4-28.5,30.4
		C17.2,76,5.9,66.5,5.9,46.2z"/>
	<path fill="#67666A" d="M164.3,10.9c0-1.3,1.1-2.4,2.4-2.4c1.3,0,2.4,1.1,2.4,2.4V75c0,1.3-1.1,2.4-2.4,2.4c-1.3,0-2.4-1.1-2.4-2.4
		V10.9z"/>
	<path fill="#67666A" d="M191.9,41v-0.2c0-19.4,14.5-35.5,34.4-35.5c11.4,0,18.6,3.9,25.2,9.6c0.5,0.5,1,1.2,1,2.1
		c0,1.4-1.3,2.6-2.7,2.6c-0.7,0-1.4-0.3-1.8-0.7c-5.7-5.2-12.3-8.9-21.9-8.9c-16.5,0-29,13.4-29,30.7v0.2
		c0,17.4,12.7,30.9,29.1,30.9c9.3,0,15.9-3.3,22.4-9.5c0.4-0.4,1-0.8,1.8-0.8c1.3,0,2.5,1.2,2.5,2.5c0,0.8-0.4,1.4-0.8,1.8
		c-7,6.5-14.5,10.7-26,10.7C206.4,76.3,191.9,60.7,191.9,41z"/>
	<path fill="#67666A" d="M273.4,7.8c0-1.4,1.2-2.6,2.6-2.6c1.4,0,2.6,1.2,2.6,2.6v62.3h49.6c1.3,0,2.4,1.1,2.4,2.4
		c0,1.3-1.1,2.4-2.4,2.4H276c-1.4,0-2.6-1.2-2.6-2.6V7.8z"/>
	<g>
		<path fill="#67666A" d="M393.2,72.6L363,7.1c-0.7-1.5-1.7-2.5-3.5-2.5h-0.2c-1.8,0-2.8,1-3.5,2.5l-30.3,65.7
			c-0.3,0.6-0.4,1.2-0.4,1.6c0,1.2,1.1,2.2,2.4,2.2c1.2,0,2-0.7,2.5-1.9l8.3-18.3l2.2-4.8l18.8-41.1l18.7,41.1l2.2,4.8l8.3,18.2
			c0.5,1.1,1.4,2,2.6,2c1.4,0,2.5-1.1,2.5-2.4C393.6,73.7,393.5,73.2,393.2,72.6z"/>
	</g>
	<g>
		<path fill="#67666A" d="M126.9,39.7c5.8-2.3,12.1-7.2,12.1-16.9v-0.2c0-4.5-1.6-8.2-4.6-11.2c-4-4-10.5-6.3-18.5-6.3H60.5
			c-1.4,0-2.6,1.2-2.6,2.6l5.3,2.2h52.7c11.4,0,17.8,5.3,17.8,13.1v0.2c0,8.5-6.2,13.5-15.2,14.5V43c12.4,0.6,19.2,5.6,19.2,13.8
			v0.2c0,8.9-7.7,14.5-19.9,14.5H91.9V42.9V38V15.6h-5.3v58.1c0,1.4,1.2,2.6,2.6,2.6h28.2c15.3,0,25.5-7.5,25.5-19.4v-0.2
			C143,46.9,135.5,42,126.9,39.7z"/>
	</g>
</g>
<g>
	<circle fill="#D68500" cx="276.1" cy="8.2" r="4.2"/>
	<circle fill="#D68500" cx="328.1" cy="73.2" r="4.2"/>
	<circle fill="#D68500" cx="390.9" cy="73.6" r="4.2"/>
	<circle fill="#D68500" cx="249.1" cy="15.9" r="4.2"/>
	<circle fill="#D68500" cx="250.1" cy="65.1" r="4.2"/>
	<circle fill="#D68500" cx="166.7" cy="8.2" r="4.2"/>
	<circle fill="#D68500" cx="166.7" cy="73.5" r="4.2"/>
	<circle fill="#D68500" cx="8.4" cy="7.7" r="4.2"/>
	<circle fill="#D68500" cx="60.3" cy="7.7" r="4.2"/>
	<circle fill="#D68500" cx="88.9" cy="16.4" r="4.2"/>
	<circle fill="#D68500" cx="117" cy="40.1" r="4.2"/>
	<circle fill="#D68500" cx="276.1" cy="72.7" r="4.2"/>
</g>
<g>
</g>
<g>
</g>
<g>
</g>
<g>
</g>
<g>
</g>
<g>
</g>
</svg>
