<?xml version="1.0" encoding="utf-8"?>
<!-- Generator: Adobe Illustrator 17.0.0, SVG Export Plug-In . SVG Version: 6.00 Build 0)  -->
<!DOCTYPE svg PUBLIC "-//W3C//DTD SVG 1.1//EN" "http://www.w3.org/Graphics/SVG/1.1/DTD/svg11.dtd">
<svg version="1.1" id="Capa_1" xmlns="http://www.w3.org/2000/svg" xmlns:xlink="http://www.w3.org/1999/xlink" x="0px" y="0px"
	 viewBox="0 0 1434 1436" enable-background="new 0 0 1434 1436" xml:space="preserve">
<g>
	<g>
		<path fill-rule="evenodd" clip-rule="evenodd" fill="#2B3034" d="M716.887,977.344c-3.306,0-6.611-0.011-9.917-0.021l-6.567-0.017
			c-4.67-0.007-9.499-0.014-14.392-0.319c-20.036-1.249-40.59-6.218-61.09-14.769c-19.273-8.039-38.05-19.038-55.81-32.693
			c-17.236-13.252-32.883-28.509-46.504-45.345c-13.472-16.651-24.897-35.167-33.957-55.034
			c-9.144-20.051-14.683-39.112-16.933-58.275c-2.002-17.047-1.911-34.232-1.823-50.853c0.018-3.432,0.037-6.861,0.037-10.285
			c0-22.716,5.098-46.479,15.151-70.627c8.466-20.333,20.318-40.717,35.227-60.583c4.274-5.696,8.757-11.291,13.092-16.701
			c1.176-1.468,2.352-2.935,3.524-4.405c2.45-3.072,5.171-5.709,8.563-8.297c3.487-2.66,7.009-5.497,10.416-8.239
			c3.435-2.766,6.986-5.626,10.598-8.387c9.112-6.967,17.807-12.887,26.581-18.097c16.679-9.906,34.209-17.313,52.104-22.015
			c16.262-4.273,33.967-6.79,55.719-7.922c9.179-0.477,19.118-0.725,31.279-0.78l1.392-0.003c11.511,0,21.065,0.668,30.067,2.102
			c19.96,3.179,40.187,9.898,60.116,19.97c18.874,9.539,36.971,21.809,53.786,36.469c16.478,14.365,31.086,30.457,43.417,47.83
			c12.679,17.864,22.997,37.403,30.669,58.074c3.575,9.635,6.308,19.292,8.122,28.704c1.641,8.503,2.708,17.601,3.264,27.812
			c0.545,10.013,0.587,19.979,0.584,30.159c0,1.625,0.005,3.25,0.01,4.875c0.03,9.794,0.062,19.921-1.149,30.117
			c-2.636,22.182-9.843,45.016-21.42,67.868c-10.296,20.323-23.372,39.465-38.865,56.894c-6.116,6.881-12.921,13.8-22.063,22.434
			c-7.246,6.843-13.563,12.141-19.88,16.672c-6.567,4.71-14.047,9.262-23.539,14.325c-12.196,6.503-22.361,11.352-31.993,15.258
			c-10.161,4.121-19.747,7.174-29.304,9.331c-8.657,1.952-17.687,3.247-27.604,3.957c-9.23,0.661-18.321,0.805-29.132,0.816
			L716.887,977.344z M716.75,644.778c-0.971,0-1.942,0.017-2.912,0.051c-9.867,0.344-19.397,2.39-28.328,6.082
			c-9.086,3.755-17.491,9.317-24.307,16.083c-7.263,7.209-13.182,16.271-17.118,26.204c-4.387,11.072-6.612,23.619-6.612,37.29
			c0,0.438,0.003,0.878,0.01,1.316c0.169,11.655,2.743,22.724,7.442,32.014c4.306,8.513,10.72,16.197,18.547,22.224
			c7.583,5.837,16.481,10.275,26.448,13.19c8.584,2.51,17.605,3.782,26.811,3.782c1.216,0,2.449-0.022,3.666-0.067
			c10.5-0.39,20.57-2.402,29.93-5.983c9.611-3.676,17.988-8.837,24.898-15.338c7.185-6.76,12.8-15.191,16.238-24.384
			c3.77-10.078,5.211-21.907,4.284-35.158c-0.905-12.918-3.941-24.685-9.025-34.972c-4.585-9.278-11.085-17.621-18.798-24.129
			c-7.393-6.237-15.932-10.979-25.38-14.095C734.274,646.161,725.596,644.778,716.75,644.778z"/>
		<path fill="#43C4DD" d="M733.582,493.336c9.578,0,19.061,0.471,28.542,1.981c19.963,3.18,39.266,9.949,57.278,19.052
			c18.666,9.434,36.039,21.392,51.795,35.128c15.687,13.676,29.839,29.165,41.887,46.14c12.203,17.194,22.153,36.075,29.49,55.844
			c3.28,8.838,5.908,17.913,7.694,27.172c1.687,8.747,2.619,17.617,3.102,26.508c0.537,9.866,0.573,19.753,0.57,29.631
			c-0.004,11.298,0.264,22.615-1.072,33.856c-2.683,22.575-10.2,44.421-20.445,64.643c-10.025,19.789-22.733,38.264-37.467,54.84
			c-6.78,7.627-14.06,14.824-21.477,21.829c-5.979,5.646-12.191,11.048-18.878,15.845c-7.128,5.113-14.721,9.527-22.455,13.651
			c-10.126,5.4-20.438,10.514-31.077,14.83c-9.023,3.66-18.297,6.714-27.8,8.859c-8.609,1.943-17.366,3.115-26.165,3.745
			c-9.467,0.678-18.966,0.781-28.453,0.793c-0.566,0.001-1.132,0.001-1.698,0.001c-4.871,0-9.742-0.024-14.613-0.036
			c-5.247-0.013-10.489,0.023-15.729-0.303c-19.956-1.244-39.554-6.361-57.973-14.043c-19.183-8.001-37.176-18.776-53.64-31.435
			c-16.598-12.762-31.713-27.486-44.883-43.763c-13.132-16.231-24.017-33.976-32.677-52.966
			c-8.05-17.651-13.861-36.088-16.128-55.393c-2.335-19.886-1.721-40.031-1.721-60.012c0-23.02,5.595-45.742,14.41-66.914
			c8.694-20.882,20.475-40.429,34.035-58.498c5.315-7.082,10.921-13.957,16.442-20.881c2.057-2.58,4.251-4.641,6.87-6.639
			c7.106-5.421,13.922-11.205,21.021-16.633c8.22-6.285,16.747-12.181,25.647-17.466c15.518-9.216,32.16-16.388,49.626-20.977
			c17.56-4.614,35.667-6.677,53.766-7.618c10.264-0.534,20.544-0.721,30.821-0.767C732.68,493.337,733.131,493.336,733.582,493.336
			 M716.733,812.674c1.341,0,2.683-0.025,4.023-0.074c11.263-0.417,22.49-2.583,33.024-6.614
			c10.329-3.952,19.996-9.732,28.065-17.324c8.271-7.781,14.688-17.396,18.667-28.035c4.685-12.526,5.801-25.951,4.873-39.217
			c-0.933-13.33-4.065-26.567-10.001-38.579c-5.142-10.405-12.353-19.743-21.229-27.232c-8.39-7.079-18.165-12.45-28.584-15.885
			c-9.28-3.06-19.05-4.595-28.82-4.595c-1.083,0-2.167,0.019-3.249,0.057c-10.852,0.379-21.642,2.659-31.681,6.808
			c-10.202,4.217-19.584,10.373-27.423,18.155c-8.416,8.355-14.929,18.488-19.293,29.502c-5.136,12.961-7.291,26.947-7.291,40.848
			c0,0.487,0.004,0.975,0.011,1.462c0.182,12.516,2.812,25.021,8.482,36.228c5.055,9.992,12.41,18.694,21.275,25.518
			c8.808,6.781,18.977,11.693,29.629,14.807C696.781,811.301,706.761,812.674,716.733,812.674 M733.582,474.016
			c-0.48,0-0.959,0.001-1.439,0.003c-12.32,0.055-22.405,0.307-31.739,0.793c-22.426,1.167-40.751,3.781-57.672,8.226
			c-18.764,4.93-37.128,12.686-54.582,23.052c-9.101,5.405-18.101,11.531-27.516,18.729c-3.708,2.835-7.308,5.734-10.789,8.537
			c-3.513,2.829-6.83,5.5-10.217,8.084c-4.04,3.082-7.299,6.245-10.256,9.954c-1.169,1.466-2.341,2.929-3.514,4.393
			c-4.381,5.467-8.911,11.121-13.276,16.937c-15.391,20.508-27.644,41.593-36.419,62.669c-10.546,25.331-15.894,50.342-15.894,74.34
			c0,3.408-0.018,6.821-0.036,10.236c-0.089,16.91-0.182,34.395,1.889,52.028c2.369,20.175,8.171,40.18,17.738,61.157
			c9.399,20.609,21.254,39.82,35.236,57.102c14.098,17.424,30.29,33.213,48.126,46.927c18.425,14.167,37.932,25.59,57.979,33.951
			c21.494,8.965,43.097,14.178,64.208,15.494c5.192,0.324,10.177,0.331,14.997,0.337l1.885,0.003l4.717,0.014
			c3.315,0.011,6.63,0.022,9.945,0.022l1.721-0.001c11.021-0.013,20.308-0.162,29.81-0.842c10.411-0.745,19.909-2.109,29.039-4.17
			c10.075-2.274,20.153-5.48,30.808-9.802c9.956-4.038,20.413-9.023,32.907-15.686c9.876-5.267,17.701-10.033,24.624-15
			c6.679-4.791,13.314-10.351,20.882-17.497c9.355-8.834,16.341-15.94,22.652-23.04c16.045-18.051,29.591-37.882,40.262-58.945
			c12.091-23.865,19.626-47.784,22.396-71.094c1.281-10.78,1.248-21.207,1.216-31.29c-0.005-1.613-0.01-3.227-0.01-4.84
			c0.003-10.317-0.04-20.428-0.598-30.687c-0.58-10.656-1.7-20.18-3.424-29.118c-1.917-9.938-4.794-20.111-8.552-30.235
			c-7.965-21.462-18.68-41.751-31.848-60.304c-12.77-17.992-27.892-34.653-44.946-49.521
			c-17.422-15.188-36.188-27.909-55.777-37.808c-20.823-10.523-42.003-17.551-62.953-20.888
			C755.647,474.722,745.612,474.016,733.582,474.016L733.582,474.016z M716.733,793.353c-8.288,0-16.397-1.142-24.101-3.395
			c-8.808-2.575-16.636-6.469-23.266-11.573c-6.69-5.15-12.161-11.696-15.82-18.93c-4.041-7.987-6.255-17.596-6.403-27.789
			c-0.006-0.394-0.009-0.787-0.009-1.181c0-12.447,1.996-23.796,5.933-33.731c3.45-8.706,8.617-16.627,14.942-22.907
			c5.93-5.887,13.258-10.732,21.191-14.011c7.861-3.249,16.264-5.051,24.975-5.355c0.854-0.03,1.72-0.045,2.575-0.045
			c7.816,0,15.477,1.219,22.77,3.624c8.154,2.689,15.822,6.943,22.175,12.303c6.706,5.658,12.366,12.929,16.367,21.025
			c4.525,9.157,7.233,19.711,8.049,31.369c0.83,11.861-0.413,22.324-3.695,31.099c-2.922,7.812-7.697,14.98-13.81,20.732
			c-5.988,5.633-13.298,10.125-21.73,13.351c-8.369,3.202-17.397,5.002-26.835,5.351
			C718.943,793.333,717.83,793.353,716.733,793.353L716.733,793.353z"/>
	</g>
	<g>
		<path fill-rule="evenodd" clip-rule="evenodd" fill="#2B3034" d="M716.225,1042.11c-8.903,0-17.909-0.385-26.769-1.143
			c-18.9-1.617-37.711-4.985-55.913-10.01c-17.818-4.917-35.302-11.491-51.967-19.538c-16.418-7.929-32.245-17.383-47.041-28.102
			c-14.69-10.642-28.538-22.652-41.16-35.701c-12.634-13.061-24.184-27.31-34.331-42.351
			c-10.238-15.177-19.171-31.344-26.548-48.051c-7.5-16.985-13.489-34.747-17.802-52.794c-4.411-18.455-7.133-37.48-8.09-56.548
			c-0.972-19.373-0.146-38.879,2.454-57.977c2.537-18.639,6.802-37.126,12.677-54.947c5.759-17.47,13.142-34.54,21.945-50.735
			c8.688-15.982,18.865-31.307,30.248-45.55c11.324-14.169,23.971-27.43,37.59-39.414c13.662-12.021,28.46-22.898,43.983-32.328
			c15.696-9.534,32.325-17.705,49.427-24.286c17.414-6.701,35.551-11.841,53.906-15.277c18.797-3.52,38.105-5.304,57.39-5.304
			c17.752,0,35.554,1.514,52.912,4.499c18.442,3.173,36.686,8.057,54.223,14.515c17.214,6.34,33.977,14.28,49.824,23.601
			c15.662,9.213,30.62,19.885,44.457,31.72c13.785,11.791,26.617,24.872,38.141,38.881c11.576,14.075,21.964,29.247,30.875,45.094
			c9.023,16.048,16.644,32.99,22.65,50.355c6.123,17.703,10.65,36.089,13.457,54.647c2.876,19.018,3.987,38.48,3.303,57.848
			c-0.674,19.134-3.121,38.247-7.272,56.807c-4.056,18.139-9.797,36.015-17.063,53.13c-7.146,16.827-15.855,33.133-25.89,48.467
			c-9.939,15.188-21.294,29.602-33.749,42.841c-12.438,13.221-26.115,25.424-40.653,36.268
			c-14.641,10.922-30.322,20.593-46.609,28.744c-16.523,8.271-33.888,15.088-51.609,20.26c-18.096,5.28-36.813,8.916-55.635,10.807
			C737.216,1041.582,726.665,1042.11,716.225,1042.11z M716.741,479.802c-10.184,0-20.454,0.63-30.525,1.874
			c-17.117,2.114-34.032,6.043-50.277,11.679c-15.891,5.512-31.283,12.705-45.748,21.378c-14.285,8.565-27.765,18.632-40.063,29.921
			c-12.272,11.265-23.442,23.811-33.198,37.291c-9.835,13.589-18.297,28.217-25.151,43.476c-6.978,15.536-12.341,31.85-15.941,48.49
			c-3.7,17.096-5.575,34.72-5.575,52.381c0,5.345,0.173,10.749,0.514,16.061c1.118,17.393,4.082,34.663,8.808,51.333
			c4.613,16.267,10.947,32.117,18.826,47.11c7.761,14.769,17.077,28.813,27.688,41.745c10.558,12.869,22.462,24.714,35.382,35.207
			c12.987,10.547,27.083,19.793,41.893,27.48c15.039,7.807,30.927,14.061,47.224,18.589c16.709,4.644,34.008,7.519,51.418,8.543
			c4.888,0.288,9.848,0.435,14.742,0.435c12.829,0,25.718-0.997,38.309-2.961c16.954-2.646,33.666-7.089,49.672-13.207
			c15.678-5.994,30.809-13.643,44.974-22.734c14.009-8.992,27.169-19.457,39.113-31.104c11.932-11.634,22.721-24.518,32.067-38.295
			c9.437-13.909,17.459-28.815,23.847-44.305c6.513-15.794,11.379-32.33,14.463-49.147c3.171-17.299,4.49-35.067,3.921-52.812
			c-0.562-17.53-2.987-34.98-7.206-51.866c-4.109-16.453-9.963-32.539-17.399-47.812c-7.312-15.018-16.206-29.358-26.435-42.624
			c-10.161-13.177-21.703-25.376-34.308-36.261c-12.647-10.922-26.439-20.583-40.995-28.714
			c-14.756-8.244-30.402-14.972-46.502-19.997c-16.48-5.144-33.593-8.55-50.863-10.124
			C731.912,480.148,724.283,479.802,716.741,479.802z"/>
		<path fill="#43C4DD" d="M716.223,434.133c17.037,0,34.073,1.437,50.865,4.325c17.742,3.052,35.203,7.724,52.097,13.946
			c16.593,6.111,32.634,13.713,47.875,22.678c15.102,8.883,29.416,19.1,42.731,30.488c13.28,11.358,25.563,23.88,36.664,37.375
			c11.137,13.54,21.083,28.059,29.675,43.341c8.679,15.436,15.975,31.648,21.764,48.385c5.9,17.059,10.231,34.658,12.93,52.505
			c2.78,18.387,3.831,37.033,3.175,55.616c-0.648,18.363-2.979,36.665-6.989,54.597c-3.906,17.466-9.4,34.573-16.395,51.046
			c-6.888,16.223-15.228,31.826-24.879,46.574c-9.581,14.641-20.451,28.435-32.439,41.179
			c-11.977,12.731-25.068,24.412-39.078,34.863c-14.08,10.503-29.086,19.762-44.794,27.625
			c-15.901,7.959-32.518,14.485-49.588,19.465c-17.452,5.092-35.371,8.566-53.459,10.384c-10.015,1.006-20.081,1.509-30.148,1.509
			c-8.591,0-17.183-0.366-25.742-1.099c-18.155-1.553-36.165-4.769-53.729-9.618c-17.164-4.738-33.895-11.031-49.93-18.773
			c-15.828-7.643-30.974-16.695-45.208-27.006c-14.157-10.255-27.411-21.753-39.565-34.318
			c-12.161-12.571-23.218-26.208-32.999-40.708c-9.848-14.598-18.4-30.068-25.513-46.176c-7.218-16.345-12.951-33.344-17.104-50.722
			c-4.26-17.825-6.856-36.043-7.774-54.347c-0.933-18.6-0.153-37.288,2.358-55.742c2.439-17.922,6.518-35.618,12.18-52.795
			c5.55-16.838,12.619-33.172,21.087-48.748c8.377-15.411,18.121-30.077,29.071-43.779c10.909-13.651,23.015-26.343,36.134-37.887
			c13.147-11.568,27.308-21.981,42.275-31.073c15.096-9.17,31.009-16.993,47.494-23.337c16.771-6.453,34.129-11.371,51.792-14.678
			C679.235,435.827,697.729,434.133,716.223,434.133 M716.758,984.869c13.443,0,26.888-1.033,40.17-3.105
			c17.797-2.777,35.297-7.427,52.122-13.859c16.492-6.304,32.327-14.315,47.184-23.851c14.727-9.453,28.491-20.402,41.02-32.619
			c12.523-12.211,23.811-25.687,33.631-40.162c9.896-14.587,18.297-30.184,25.017-46.48c6.845-16.599,11.939-33.914,15.177-51.573
			c3.345-18.243,4.708-36.842,4.113-55.378c-0.589-18.336-3.113-36.606-7.56-54.405c-4.321-17.298-10.452-34.14-18.257-50.171
			c-7.691-15.796-17.002-30.799-27.73-44.711c-10.674-13.842-22.747-26.602-35.977-38.026
			c-13.267-11.457-27.695-21.567-42.998-30.117c-15.485-8.65-31.862-15.697-48.794-20.982c-17.348-5.414-35.267-8.973-53.365-10.622
			c-7.902-0.72-15.836-1.08-23.772-1.08c-10.695,0-21.391,0.655-32.003,1.965c-17.952,2.217-35.665,6.326-52.755,12.254
			c-16.716,5.799-32.825,13.332-48,22.43c-15.019,9.005-29.118,19.54-42.019,31.381c-12.88,11.822-24.564,24.944-34.814,39.107
			c-10.316,14.253-19.175,29.558-26.384,45.608c-7.329,16.318-12.946,33.4-16.729,50.884c-3.902,18.035-5.848,36.484-5.848,54.935
			c0,5.615,0.179,11.231,0.539,16.834c1.17,18.212,4.263,36.295,9.241,53.853c4.85,17.104,11.484,33.696,19.754,49.433
			c8.162,15.532,17.913,30.224,29.042,43.789c11.086,13.512,23.537,25.901,37.104,36.919c13.622,11.063,28.366,20.741,43.942,28.825
			c15.785,8.193,32.419,14.744,49.555,19.507c17.597,4.89,35.711,7.889,53.942,8.963
			C706.451,984.717,711.604,984.869,716.758,984.869 M716.223,409.982c-20.027,0-40.084,1.854-59.612,5.51
			c-19.075,3.571-37.923,8.913-56.02,15.877c-17.769,6.837-35.049,15.328-51.359,25.235c-16.127,9.797-31.5,21.095-45.691,33.583
			c-14.147,12.449-27.284,26.223-39.046,40.94c-11.825,14.796-22.397,30.717-31.424,47.322
			c-9.147,16.827-16.82,34.565-22.805,52.721c-6.105,18.521-10.537,37.732-13.174,57.099c-2.7,19.837-3.558,40.094-2.549,60.209
			c0.994,19.806,3.821,39.573,8.405,58.751c4.483,18.757,10.708,37.216,18.501,54.864c7.666,17.36,16.947,34.158,27.585,49.927
			c10.541,15.625,22.539,30.427,35.662,43.993c13.111,13.554,27.496,26.031,42.755,37.085c15.375,11.137,31.818,20.96,48.875,29.196
			c17.318,8.362,35.488,15.194,54.005,20.305c18.916,5.222,38.463,8.721,58.097,10.4c9.202,0.787,18.555,1.186,27.801,1.186
			c10.843,0,21.799-0.548,32.563-1.63c19.557-1.965,39.007-5.744,57.809-11.23c18.413-5.373,36.458-12.456,53.633-21.053
			c16.925-8.472,33.217-18.519,48.424-29.863c15.101-11.265,29.309-23.94,42.228-37.673c12.939-13.754,24.734-28.727,35.058-44.503
			c10.426-15.932,19.476-32.875,26.9-50.359c7.552-17.785,13.518-36.362,17.734-55.215c4.313-19.286,6.855-39.142,7.556-59.016
			c0.71-20.112-0.445-40.325-3.432-60.079c-2.916-19.284-7.621-38.39-13.985-56.789c-6.241-18.044-14.159-35.649-23.536-52.327
			c-9.258-16.466-20.05-32.228-32.075-46.847c-11.969-14.551-25.298-28.139-39.618-40.387
			c-14.374-12.294-29.913-23.381-46.184-32.952c-16.466-9.685-33.885-17.936-51.773-24.524
			c-18.226-6.713-37.185-11.788-56.349-15.084C753.15,411.555,734.659,409.982,716.223,409.982L716.223,409.982z M716.758,960.718
			c-4.658,0-9.379-0.139-14.031-0.413c-16.562-0.976-33.013-3.708-48.896-8.123c-15.492-4.305-30.597-10.252-44.896-17.673
			c-14.084-7.31-27.489-16.104-39.842-26.137c-12.291-9.982-23.616-21.25-33.659-33.491c-10.093-12.302-18.953-25.66-26.334-39.704
			c-7.491-14.255-13.513-29.324-17.898-44.787c-4.494-15.85-7.312-32.273-8.375-48.813c-0.325-5.054-0.489-10.197-0.489-15.286
			c0-16.803,1.784-33.568,5.302-49.828c3.423-15.818,8.522-31.328,15.155-46.097c6.516-14.508,14.563-28.417,23.918-41.343
			c9.281-12.824,19.906-24.759,31.581-35.474c11.699-10.738,24.521-20.314,38.108-28.461c13.753-8.246,28.387-15.085,43.495-20.326
			c15.443-5.357,31.525-9.093,47.799-11.103c9.58-1.183,19.352-1.783,29.044-1.783c7.178,0,14.439,0.33,21.58,0.981
			c16.422,1.497,32.693,4.735,48.361,9.625c15.305,4.777,30.18,11.173,44.211,19.012c13.841,7.732,26.96,16.921,38.992,27.311
			c11.989,10.353,22.969,21.959,32.636,34.495c9.73,12.618,18.189,26.256,25.141,40.536c7.068,14.516,12.633,29.808,16.541,45.452
			c4.011,16.057,6.317,32.653,6.852,49.328c0.542,16.887-0.712,33.793-3.729,50.247c-2.931,15.987-7.557,31.707-13.749,46.722
			c-6.073,14.728-13.702,28.902-22.675,42.128c-8.889,13.102-19.152,25.359-30.506,36.429
			c-11.36,11.077-23.878,21.032-37.206,29.587c-13.47,8.646-27.857,15.919-42.762,21.617c-15.214,5.816-31.102,10.04-47.222,12.556
			C741.227,959.771,728.965,960.718,716.758,960.718L716.758,960.718z"/>
	</g>
	<g>
		<path fill-rule="evenodd" clip-rule="evenodd" fill="#2B3034" d="M718.32,1246.82c-11.257,0-22.65-0.356-33.863-1.059
			c-18.771-1.175-37.648-3.358-56.109-6.49c-18.209-3.09-36.444-7.174-54.198-12.14c-17.535-4.902-35.021-10.782-51.971-17.477
			c-16.777-6.627-33.408-14.2-49.431-22.509c-15.9-8.245-31.573-17.406-46.583-27.23c-14.924-9.767-29.535-20.412-43.427-31.643
			c-13.848-11.194-27.295-23.222-39.966-35.749c-12.673-12.529-24.853-25.835-36.201-39.55
			c-11.383-13.755-22.193-28.237-32.13-43.044c-9.987-14.882-19.324-30.438-27.752-46.235
			c-8.491-15.918-16.251-32.443-23.066-49.119c-6.883-16.841-12.963-34.233-18.071-51.694c-5.17-17.669-9.466-35.823-12.768-53.957
			c-3.348-18.383-5.755-37.192-7.156-55.904c-1.421-18.988-1.838-38.304-1.24-57.412c0.591-18.913,2.194-37.961,4.766-56.613
			c2.535-18.385,6.069-36.821,10.504-54.796c4.379-17.746,9.74-35.463,15.934-52.661c6.127-17.009,13.211-33.903,21.056-50.213
			c7.776-16.167,16.48-32.134,25.869-47.455c9.329-15.225,19.548-30.16,30.372-44.391c10.785-14.178,22.416-27.979,34.569-41.02
			c12.145-13.031,25.084-25.595,38.46-37.344c13.402-11.773,27.548-22.998,42.045-33.363c14.56-10.41,29.81-20.192,45.326-29.076
			c15.624-8.944,31.875-17.181,48.3-24.481c16.583-7.37,33.731-13.956,50.967-19.577c17.438-5.687,35.378-10.52,53.323-14.364
			c18.185-3.896,36.812-6.872,55.364-8.844c18.832-2.001,38.039-3.015,57.088-3.015c3.459,0,6.955,0.033,10.39,0.099
			c18.966,0.362,38.076,1.737,56.799,4.086c18.452,2.316,36.964,5.634,55.021,9.86c17.825,4.172,35.632,9.328,52.923,15.326
			c17.097,5.93,34.092,12.821,50.512,20.483c16.27,7.592,32.349,16.114,47.789,25.331c15.345,9.16,30.404,19.209,44.761,29.87
			c14.307,10.624,28.244,22.097,41.425,34.102c13.167,11.991,25.879,24.786,37.785,38.028c11.92,13.257,23.305,27.27,33.839,41.648
			c10.575,14.434,20.53,29.562,29.588,44.965c9.12,15.51,17.541,31.65,25.027,47.974c7.557,16.478,14.339,33.528,20.158,50.677
			c5.887,17.345,10.928,35.2,14.982,53.069c4.108,18.107,7.304,36.661,9.495,55.146c2.225,18.766,3.47,37.912,3.701,56.907
			c0.232,19.095-0.55,38.356-2.326,57.247c-1.749,18.608-4.504,37.308-8.189,55.576c-3.635,18.02-8.26,36.045-13.746,53.573
			c-5.424,17.323-11.815,34.567-18.996,51.253c-7.115,16.53-15.168,32.889-23.936,48.624c-8.706,15.624-18.317,30.994-28.565,45.683
			c-10.205,14.626-21.271,28.904-32.89,42.438c-11.598,13.512-24.015,26.596-36.903,38.888
			c-12.893,12.295-26.557,24.082-40.614,35.032c-14.092,10.977-28.902,21.363-44.021,30.871
			c-15.197,9.557-31.051,18.439-47.12,26.402c-16.199,8.027-32.992,15.304-49.913,21.626c-17.103,6.391-34.73,11.955-52.396,16.54
			c-17.895,4.644-36.253,8.394-54.565,11.145c-18.577,2.791-37.56,4.622-56.42,5.442
			C734.093,1246.647,726.151,1246.82,718.32,1246.82z M716.732,406.147c-11.467,0-23.04,0.622-34.397,1.848
			c-17.403,1.878-34.739,5.223-51.528,9.94c-16.466,4.627-32.678,10.652-48.187,17.906c-15.296,7.155-30.145,15.616-44.134,25.149
			c-13.883,9.46-27.123,20.115-39.352,31.667c-12.218,11.542-23.6,24.142-33.832,37.452c-10.289,13.383-19.567,27.682-27.578,42.5
			c-8.103,14.989-15.032,30.74-20.594,46.813c-5.66,16.356-9.997,33.316-12.89,50.406c-2.959,17.484-4.46,35.418-4.46,53.303
			c0,10.06,0.477,20.209,1.416,30.166c1.648,17.47,4.768,34.887,9.271,51.767c4.415,16.549,10.233,32.86,17.293,48.481
			c6.96,15.4,15.235,30.369,24.595,44.488c9.283,14.006,19.77,27.384,31.17,39.765c11.381,12.36,23.834,23.901,37.013,34.304
			c13.243,10.453,27.415,19.91,42.121,28.106c14.868,8.288,30.51,15.415,46.493,21.183c16.255,5.866,33.126,10.42,50.143,13.534
			c17.406,3.186,35.27,4.923,53.096,5.162c1.451,0.02,2.9,0.029,4.352,0.029c16.468,0,33.001-1.273,49.14-3.783
			c17.165-2.672,34.211-6.791,50.664-12.244c16.163-5.357,32.02-12.088,47.128-20.007c14.927-7.823,29.351-16.924,42.871-27.049
			c13.443-10.066,26.188-21.29,37.883-33.361c11.702-12.078,22.521-25.179,32.157-38.94c9.704-13.857,18.35-28.587,25.697-43.781
			c7.446-15.397,13.675-31.511,18.513-47.892c4.93-16.693,8.497-33.948,10.604-51.287c2.156-17.749,2.82-35.856,1.975-53.818
			c-0.834-17.686-3.153-35.37-6.896-52.561c-3.664-16.831-8.751-33.475-15.122-49.472c-6.271-15.747-13.883-31.116-22.625-45.679
			c-8.654-14.419-18.547-28.267-29.404-41.161c-10.816-12.845-22.745-24.926-35.454-35.907
			c-12.747-11.013-26.463-21.078-40.768-29.916c-14.439-8.921-29.695-16.725-45.345-23.194
			c-15.893-6.57-32.444-11.868-49.195-15.748c-17.105-3.962-34.714-6.512-52.339-7.581
			C729.764,406.346,723.205,406.147,716.732,406.147z"/>
		<path fill="#43C4DD" d="M718.329,190.471c3.386,0,6.772,0.032,10.158,0.097c18.562,0.354,37.106,1.683,55.527,3.995
			c18.076,2.269,36.034,5.484,53.773,9.636c17.483,4.092,34.753,9.093,51.718,14.977c16.783,5.821,33.265,12.506,49.362,20.017
			c15.975,7.454,31.57,15.722,46.707,24.757c15.061,8.99,29.668,18.739,43.75,29.196c14.042,10.427,27.562,21.558,40.493,33.335
			c12.92,11.767,25.252,24.178,36.936,37.174c11.695,13.008,22.74,26.601,33.078,40.712c10.368,14.153,20.026,28.827,28.919,43.95
			c8.94,15.202,17.109,30.857,24.46,46.887c7.409,16.156,13.988,32.693,19.701,49.524c5.775,17.017,10.664,34.335,14.641,51.86
			c4.036,17.786,7.132,35.785,9.28,53.896c2.189,18.463,3.392,37.041,3.618,55.632c0.228,18.679-0.526,37.37-2.274,55.968
			c-1.714,18.23-4.383,36.371-8.004,54.32c-3.564,17.669-8.049,35.152-13.434,52.354c-5.321,17-11.521,33.725-18.563,50.087
			c-6.983,16.224-14.795,32.09-23.392,47.519c-8.548,15.341-17.871,30.249-27.92,44.651c-10.014,14.353-20.749,28.203-32.148,41.483
			c-11.383,13.261-23.428,25.953-36.075,38.014c-12.653,12.066-25.908,23.501-39.702,34.245
			c-13.826,10.77-28.192,20.846-43.028,30.175c-14.903,9.371-30.279,17.989-46.053,25.805
			c-15.885,7.871-32.172,14.929-48.778,21.134c-16.773,6.268-33.871,11.665-51.203,16.163c-17.569,4.56-35.377,8.195-53.327,10.891
			c-18.272,2.745-36.69,4.517-55.15,5.319c-7.688,0.334-15.383,0.502-23.079,0.502c-11.042,0-22.086-0.344-33.107-1.034
			c-18.376-1.15-36.691-3.265-54.844-6.344c-17.846-3.028-35.534-6.988-52.966-11.862c-17.209-4.812-34.168-10.516-50.787-17.08
			c-16.464-6.502-32.594-13.849-48.308-21.997c-15.612-8.096-30.814-16.983-45.529-26.614c-14.655-9.591-28.828-19.919-42.449-30.93
			c-13.594-10.989-26.638-22.657-39.068-34.946c-12.429-12.288-24.245-25.196-35.388-38.661
			c-11.162-13.489-21.65-27.537-31.406-42.076c-9.794-14.594-18.852-29.682-27.125-45.19c-8.324-15.604-15.852-31.632-22.543-48.004
			c-6.751-16.52-12.649-33.389-17.66-50.517c-5.074-17.343-9.24-34.952-12.477-52.73c-3.291-18.074-5.623-36.322-6.994-54.642
			c-1.397-18.672-1.798-37.418-1.213-56.133c0.579-18.512,2.13-36.994,4.659-55.342c2.483-18.014,5.909-35.897,10.266-53.552
			c4.295-17.408,9.495-34.593,15.571-51.462c6.014-16.695,12.886-33.08,20.577-49.071c7.636-15.875,16.079-31.36,25.282-46.38
			c9.16-14.949,19.073-29.435,29.687-43.389c10.586-13.918,21.869-27.305,33.792-40.097c11.914-12.783,24.467-24.972,37.596-36.505
			c13.145-11.547,26.867-22.436,41.099-32.612c14.278-10.209,29.07-19.699,44.302-28.419c15.316-8.768,31.077-16.758,47.205-23.926
			c16.26-7.226,32.891-13.615,49.807-19.132c17.11-5.58,34.511-10.267,52.109-14.037c17.868-3.829,35.939-6.712,54.11-8.643
			C681.052,191.45,699.691,190.471,718.329,190.471 M716.741,1052.195c17.067,0,34.134-1.304,50.998-3.927
			c17.847-2.777,35.462-7.031,52.607-12.713c16.839-5.582,33.221-12.539,48.934-20.774c15.553-8.151,30.449-17.553,44.504-28.078
			c13.994-10.479,27.153-22.069,39.318-34.625c12.17-12.562,23.343-26.089,33.376-40.416c10.088-14.406,19.021-29.619,26.677-45.451
			c7.746-16.017,14.183-32.666,19.222-49.729c5.14-17.404,8.822-35.236,11.011-53.251c2.249-18.512,2.926-37.215,2.048-55.842
			c-0.864-18.344-3.252-36.616-7.158-54.56c-3.813-17.517-9.07-34.717-15.702-51.372c-6.534-16.408-14.401-32.283-23.49-47.426
			c-9.017-15.023-19.236-29.322-30.522-42.724c-11.256-13.368-23.573-25.841-36.797-37.266
			c-13.253-11.45-27.415-21.846-42.315-31.052c-15.012-9.275-30.771-17.339-47.078-24.081
			c-16.542-6.839-33.646-12.314-51.084-16.353c-17.85-4.134-36.045-6.761-54.334-7.869c-6.734-0.408-13.478-0.612-20.225-0.612
			c-11.919,0-23.842,0.638-35.692,1.917c-18.078,1.951-35.993,5.402-53.499,10.321c-17.149,4.819-33.901,11.046-50.037,18.593
			c-15.94,7.456-31.276,16.199-45.818,26.109c-14.456,9.852-28.126,20.855-40.843,32.868c-12.706,12.003-24.46,25.013-35.113,38.871
			c-10.696,13.913-20.281,28.679-28.626,44.117c-8.427,15.589-15.588,31.861-21.383,48.607
			c-5.896,17.038-10.375,34.564-13.385,52.341c-3.092,18.267-4.629,36.792-4.629,55.318c0,10.449,0.488,20.898,1.469,31.3
			c1.712,18.141,4.929,36.138,9.625,53.744c4.598,17.234,10.611,34.089,17.957,50.343c7.253,16.048,15.803,31.507,25.533,46.186
			c9.668,14.586,20.499,28.4,32.352,41.273c11.839,12.857,24.697,24.774,38.415,35.602c13.768,10.867,28.402,20.636,43.722,29.176
			c15.462,8.619,31.622,15.985,48.273,21.993c16.93,6.109,34.364,10.813,52.069,14.054c18.176,3.327,36.631,5.11,55.107,5.358
			C713.733,1052.185,715.236,1052.195,716.741,1052.195 M718.329,166.32c-19.474,0-39.111,1.037-58.363,3.083
			c-18.969,2.016-38.018,5.058-56.618,9.044c-18.351,3.932-36.7,8.875-54.537,14.691c-17.631,5.75-35.169,12.487-52.127,20.023
			c-16.8,7.466-33.42,15.89-49.396,25.036c-15.865,9.083-31.46,19.086-46.35,29.732c-14.824,10.599-29.289,22.077-42.991,34.114
			c-13.677,12.015-26.908,24.861-39.324,38.183c-12.426,13.333-24.318,27.444-35.346,41.942
			c-11.068,14.552-21.517,29.824-31.057,45.392c-9.6,15.667-18.501,31.995-26.454,48.53c-8.024,16.681-15.269,33.96-21.535,51.355
			c-6.335,17.587-11.818,35.709-16.297,53.861c-4.537,18.385-8.151,37.24-10.743,56.04c-2.629,19.071-4.269,38.547-4.873,57.885
			c-0.611,19.53-0.184,39.276,1.268,58.69c1.432,19.131,3.894,38.365,7.318,57.167c3.378,18.548,7.771,37.115,13.058,55.185
			c5.224,17.854,11.442,35.643,18.483,52.871c6.97,17.056,14.907,33.957,23.59,50.234c8.617,16.153,18.165,32.06,28.38,47.281
			c10.16,15.14,21.214,29.949,32.853,44.014c11.609,14.028,24.062,27.633,37.015,40.439c12.956,12.808,26.704,25.106,40.865,36.553
			c14.202,11.481,29.143,22.367,44.406,32.356c15.348,10.045,31.375,19.413,47.636,27.846c16.392,8.5,33.401,16.245,50.554,23.02
			c17.332,6.845,35.216,12.859,53.155,17.876c18.163,5.079,36.812,9.256,55.431,12.415c18.88,3.203,38.184,5.436,57.375,6.637
			c11.464,0.718,23.11,1.081,34.616,1.081c8.01,0,16.128-0.176,24.129-0.524c19.28-0.838,38.689-2.71,57.688-5.564
			c18.731-2.814,37.507-6.649,55.806-11.398c18.07-4.69,36.1-10.381,53.589-16.916c17.304-6.466,34.479-13.907,51.047-22.117
			c16.43-8.141,32.642-17.225,48.187-27c15.452-9.717,30.596-20.337,45.013-31.567c14.368-11.192,28.34-23.244,41.528-35.82
			c13.178-12.567,25.874-25.945,37.734-39.762c11.885-13.846,23.199-28.446,33.629-43.394c10.48-15.02,20.308-30.738,29.211-46.716
			c8.968-16.094,17.204-32.824,24.478-49.726c7.345-17.065,13.882-34.702,19.428-52.42c5.612-17.929,10.343-36.364,14.06-54.793
			c3.768-18.68,6.586-37.802,8.375-56.835c1.816-19.32,2.616-39.01,2.378-58.523c-0.237-19.422-1.51-38.997-3.785-58.181
			c-2.241-18.904-5.508-37.879-9.71-56.397c-4.148-18.278-9.303-36.539-15.323-54.277c-5.953-17.54-12.89-34.978-20.618-51.83
			c-7.659-16.7-16.27-33.206-25.595-49.062c-9.262-15.75-19.442-31.219-30.255-45.979c-10.767-14.697-22.409-29.025-34.6-42.586
			c-12.173-13.54-25.171-26.622-38.634-38.882c-13.479-12.276-27.73-24.008-42.357-34.869c-14.683-10.904-30.082-21.18-45.77-30.544
			c-15.789-9.425-32.232-18.14-48.873-25.905c-16.791-7.835-34.172-14.883-51.661-20.949c-17.684-6.134-35.895-11.407-54.128-15.675
			c-18.469-4.323-37.401-7.715-56.269-10.084c-19.144-2.403-38.683-3.809-58.074-4.179
			C725.429,166.354,721.856,166.32,718.329,166.32L718.329,166.32z M716.74,1028.044c-1.396,0-2.791-0.009-4.187-0.028
			c-17.155-0.231-34.342-1.902-51.083-4.966c-16.365-2.996-32.588-7.374-48.22-13.015c-15.368-5.546-30.411-12.399-44.712-20.371
			c-14.146-7.885-27.778-16.982-40.518-27.038c-12.682-10.01-24.663-21.114-35.613-33.005
			c-10.968-11.911-21.057-24.782-29.987-38.256c-9.003-13.582-16.961-27.979-23.656-42.79c-6.789-15.022-12.384-30.708-16.63-46.622
			c-4.331-16.235-7.331-32.986-8.916-49.788c-0.904-9.581-1.362-19.348-1.362-29.032c0-17.212,1.444-34.467,4.291-51.287
			c2.782-16.437,6.953-32.746,12.396-48.474c5.348-15.456,12.012-30.603,19.806-45.02c7.705-14.253,16.63-28.008,26.528-40.882
			c9.846-12.808,20.798-24.932,32.551-36.034c11.766-11.115,24.504-21.365,37.859-30.467c13.457-9.17,27.739-17.309,42.45-24.19
			c14.914-6.976,30.504-12.769,46.338-17.219c16.146-4.537,32.819-7.754,49.556-9.56c10.928-1.179,22.065-1.777,33.102-1.778
			c6.228,0,12.541,0.191,18.764,0.568c16.954,1.027,33.893,3.48,50.345,7.291c16.107,3.731,32.024,8.826,47.307,15.144
			c15.05,6.222,29.723,13.727,43.611,22.308c13.761,8.502,26.956,18.185,39.22,28.78c12.228,10.565,23.705,22.188,34.112,34.548
			c10.444,12.402,19.961,25.724,28.288,39.598c8.409,14.008,15.73,28.789,21.76,43.932c6.126,15.384,11.019,31.39,14.541,47.573
			c3.599,16.536,5.831,33.547,6.632,50.56c0.815,17.291,0.176,34.716-1.899,51.793c-2.025,16.672-5.457,33.267-10.198,49.324
			c-4.652,15.752-10.641,31.247-17.802,46.055c-7.067,14.613-15.383,28.782-24.718,42.112c-9.27,13.238-19.679,25.843-30.938,37.464
			c-11.253,11.614-23.516,22.414-36.448,32.098c-13.007,9.74-26.882,18.494-41.24,26.019c-14.529,7.615-29.778,14.088-45.321,19.24
			c-15.824,5.245-32.216,9.206-48.721,11.774C748.501,1026.819,732.592,1028.044,716.74,1028.044L716.74,1028.044z"/>
	</g>
	<g>
		<path fill-rule="evenodd" clip-rule="evenodd" fill="#2B3034" d="M716.751,1356.248c-3.817,0-7.689-0.035-11.508-0.104
			c-18.928-0.339-38.02-1.534-56.747-3.553c-18.497-1.993-37.099-4.839-55.289-8.456c-17.976-3.574-36.012-7.996-53.607-13.142
			c-17.403-5.09-34.798-11.014-51.701-17.607c-16.761-6.539-33.439-13.892-49.575-21.855c-16.027-7.909-31.917-16.617-47.227-25.881
			c-15.226-9.213-30.252-19.201-44.662-29.688c-14.35-10.444-28.439-21.64-41.877-33.276
			c-13.414-11.617-26.494-23.947-38.878-36.649c-12.389-12.706-24.386-26.097-35.659-39.8
			c-11.295-13.732-22.137-28.11-32.223-42.736c-10.127-14.687-19.739-29.979-28.569-45.456
			c-8.883-15.568-17.192-31.703-24.696-47.955c-7.562-16.378-14.494-33.279-20.604-50.237
			c-6.166-17.115-11.647-34.711-16.292-52.299c-4.694-17.776-8.65-35.991-11.759-54.138c-3.146-18.362-5.504-37.12-7.008-55.752
			c-1.524-18.879-2.21-38.101-2.039-57.13c0.17-18.964,1.196-38.102,3.05-56.88c1.83-18.536,4.513-37.19,7.976-55.445
			c3.422-18.043,7.689-36.139,12.683-53.786c4.943-17.468,10.72-34.93,17.171-51.902c6.394-16.822,13.608-33.576,21.44-49.797
			c7.775-16.104,16.351-32.076,25.488-47.473c9.087-15.312,18.951-30.428,29.317-44.928c10.329-14.447,21.408-28.634,32.929-42.167
			c11.499-13.507,23.719-26.691,36.32-39.187c12.604-12.497,25.892-24.606,39.495-35.991c13.627-11.405,27.91-22.365,42.451-32.577
			c14.595-10.248,29.8-19.986,45.193-28.944c15.48-9.01,31.534-17.452,47.714-25.093c16.3-7.698,33.128-14.771,50.018-21.023
			c17.04-6.308,34.569-11.938,52.101-16.732c17.711-4.844,35.866-8.956,53.961-12.222c18.312-3.305,37.018-5.826,55.599-7.493
			c18.827-1.689,38.007-2.545,57.01-2.545c7.623,0,15.347,0.138,22.959,0.41c18.848,0.676,37.849,2.207,56.478,4.551
			c18.396,2.315,36.891,5.481,54.973,9.411c17.878,3.886,35.792,8.614,53.247,14.053c17.275,5.383,34.534,11.6,51.296,18.476
			c16.614,6.816,33.143,14.445,49.124,22.677c15.875,8.178,31.599,17.147,46.732,26.661c15.06,9.466,29.904,19.702,44.123,30.423
			c14.166,10.681,28.06,22.11,41.296,33.969c13.214,11.839,26.083,24.387,38.252,37.295c12.18,12.921,23.951,26.515,34.989,40.405
			c11.068,13.928,21.67,28.495,31.51,43.297c9.883,14.864,19.24,30.332,27.812,45.971c8.624,15.734,16.664,32.027,23.896,48.429
			c7.29,16.531,13.938,33.578,19.759,50.666c5.877,17.253,11.06,34.978,15.401,52.683c4.392,17.901,8.034,36.23,10.827,54.477
			c2.828,18.473,4.857,37.33,6.031,56.047c1.189,18.963,1.533,38.237,1.021,57.285c-0.508,18.893-1.872,37.939-4.053,56.612
			c-2.156,18.456-5.162,37.006-8.935,55.133c-3.732,17.938-8.308,35.914-13.599,53.429c-5.239,17.348-11.31,34.675-18.042,51.5
			c-6.677,16.687-14.168,33.29-22.267,49.352c-8.048,15.959-16.887,31.767-26.272,46.981c-9.344,15.148-19.456,30.085-30.057,44.395
			c-10.574,14.271-21.887,28.265-33.624,41.588c-11.728,13.313-24.167,26.288-36.974,38.566
			c-12.815,12.286-26.309,24.171-40.104,35.325c-13.829,11.182-28.303,21.903-43.019,31.868
			c-14.774,10.004-30.154,19.488-45.715,28.191c-15.653,8.754-31.868,16.93-48.194,24.297
			c-16.451,7.426-33.427,14.216-50.453,20.183c-17.19,6.024-34.852,11.356-52.493,15.848c-17.847,4.545-36.119,8.345-54.31,11.294
			c-18.415,2.986-37.224,5.181-55.901,6.521C747.348,1355.698,731.968,1356.248,716.751,1356.248z M717.798,182.938
			c-13.859,0-27.864,0.546-41.625,1.624c-17.863,1.398-35.827,3.732-53.392,6.937c-17.324,3.161-34.674,7.244-51.568,12.136
			c-16.692,4.835-33.338,10.575-49.475,17.061c-15.972,6.42-31.822,13.725-47.108,21.709c-15.17,7.924-30.131,16.7-44.467,26.083
			c-14.264,9.335-28.244,19.49-41.55,30.182c-13.27,10.662-26.173,22.102-38.352,34.001s-23.913,24.531-34.876,37.544
			c-10.99,13.043-21.461,26.773-31.123,40.808c-9.707,14.099-18.822,28.833-27.092,43.792
			c-8.327,15.063-15.993,30.708-22.783,46.499c-6.854,15.938-12.978,32.401-18.201,48.931c-5.284,16.72-9.773,33.908-13.343,51.089
			c-3.617,17.407-6.379,35.23-8.209,52.977c-1.857,18.008-2.798,36.377-2.798,54.598l0.004,2.215
			c0.075,18.198,1.091,36.548,3.021,54.539c1.901,17.727,4.734,35.527,8.421,52.91c3.639,17.16,8.195,34.322,13.542,51.011
			c5.288,16.504,11.476,32.937,18.39,48.841c6.849,15.756,14.574,31.367,22.961,46.398c8.326,14.922,17.497,29.618,27.258,43.681
			c9.716,13.996,20.239,27.684,31.278,40.684c11.02,12.977,22.802,25.563,35.021,37.409c12.226,11.853,25.174,23.243,38.486,33.854
			c13.344,10.638,27.364,20.739,41.671,30.023c14.387,9.336,29.385,18.054,44.578,25.913c15.314,7.924,31.198,15.168,47.209,21.53
			c16.162,6.422,32.837,12.098,49.563,16.869c16.928,4.828,34.304,8.843,51.646,11.934c17.586,3.135,35.573,5.396,53.459,6.724
			c13.048,0.967,26.322,1.458,39.451,1.458c5.125,0,10.323-0.075,15.45-0.223c18.099-0.521,36.324-1.982,54.171-4.343
			c17.598-2.326,35.252-5.581,52.475-9.675c17.012-4.043,34.007-9,50.514-14.731c16.333-5.672,32.577-12.237,48.278-19.513
			c15.574-7.218,30.974-15.299,45.77-24.019c14.71-8.668,29.172-18.173,42.985-28.249c13.759-10.036,27.19-20.871,39.923-32.203
			c12.713-11.315,25.02-23.387,36.58-35.88c11.565-12.497,22.655-25.711,32.962-39.277c10.333-13.604,20.111-27.867,29.062-42.396
			c9.001-14.61,17.374-29.83,24.887-45.236c7.572-15.526,14.448-31.609,20.437-47.8c6.05-16.359,11.335-33.212,15.709-50.09
			c4.429-17.087,8.032-34.618,10.709-52.107c2.715-17.731,4.542-35.851,5.432-53.856c0.901-18.243,0.863-36.738-0.113-54.972
			c-0.962-17.982-2.862-36.08-5.647-53.788c-2.746-17.464-6.418-34.969-10.914-52.028c-4.44-16.85-9.791-33.673-15.903-50
			c-6.048-16.153-12.985-32.202-20.62-47.701c-7.572-15.373-16.003-30.555-25.059-45.126c-9.006-14.492-18.838-28.715-29.224-42.275
			c-10.353-13.518-21.492-26.688-33.11-39.146c-11.61-12.45-23.965-24.473-36.72-35.737c-12.773-11.28-26.248-22.063-40.051-32.05
			c-13.86-10.027-28.361-19.477-43.102-28.085c-14.842-8.667-30.276-16.689-45.876-23.843
			c-15.738-7.217-32.013-13.719-48.373-19.326c-16.54-5.668-33.563-10.559-50.597-14.535c-17.251-4.026-34.932-7.211-52.548-9.467
			c-17.873-2.288-36.12-3.675-54.233-4.123C726.649,182.994,722.192,182.938,717.798,182.938z"/>
		<path fill="#43C4DD" d="M716.747,108.422c7.511,0,15.022,0.134,22.528,0.403c18.521,0.664,37.013,2.15,55.401,4.464
			c18.097,2.277,36.093,5.356,53.917,9.23c17.597,3.825,35.026,8.424,52.218,13.781c17.021,5.304,33.811,11.352,50.305,18.118
			c16.369,6.715,32.448,14.139,48.178,22.241c15.642,8.057,30.939,16.785,45.836,26.149c14.84,9.328,29.284,19.288,43.279,29.842
			c13.964,10.53,27.483,21.65,40.508,33.321c13.014,11.66,25.537,23.87,37.523,36.585c11.991,12.721,23.446,25.948,34.322,39.635
			c10.896,13.712,21.212,27.885,30.908,42.47c9.728,14.633,18.833,29.681,27.279,45.09c8.488,15.486,16.31,31.338,23.436,47.496
			c7.175,16.272,13.642,32.855,19.377,49.688c5.788,16.99,10.829,34.233,15.105,51.665c4.327,17.641,7.869,35.473,10.618,53.427
			c2.79,18.225,4.761,36.575,5.916,54.976c1.174,18.707,1.505,37.466,1.002,56.203c-0.499,18.559-1.822,37.096-3.975,55.537
			c-2.119,18.143-5.041,36.192-8.763,54.074c-3.673,17.65-8.123,35.139-13.336,52.397c-5.159,17.082-11.065,33.939-17.694,50.506
			c-6.577,16.438-13.866,32.591-21.838,48.4c-7.926,15.718-16.526,31.096-25.767,46.08c-9.205,14.924-19.044,29.455-29.482,43.544
			c-10.413,14.055-21.42,27.669-32.982,40.795c-11.55,13.113-23.654,25.738-36.268,37.831
			c-12.618,12.097-25.747,23.662-39.34,34.653c-13.616,11.009-27.698,21.442-42.197,31.259
			c-14.545,9.849-29.509,19.078-44.839,27.652c-15.405,8.615-31.179,16.569-47.267,23.83c-16.197,7.309-32.71,13.916-49.48,19.793
			c-16.921,5.93-34.103,11.117-51.479,15.542c-17.579,4.476-35.357,8.172-53.263,11.076c-18.17,2.947-36.472,5.079-54.833,6.396
			c-14.922,1.071-29.882,1.603-44.842,1.603c-3.766,0-7.533-0.034-11.298-0.101c-18.596-0.333-37.177-1.492-55.669-3.485
			c-18.187-1.96-36.287-4.726-54.228-8.294c-17.703-3.52-35.249-7.821-52.573-12.888c-17.142-5.014-34.064-10.777-50.703-17.268
			c-16.505-6.439-32.731-13.593-48.619-21.433c-15.793-7.794-31.252-16.267-46.32-25.384c-15.006-9.08-29.626-18.799-43.807-29.12
			c-14.145-10.295-27.854-21.189-41.079-32.642c-13.21-11.44-25.937-23.438-38.136-35.95
			c-12.202-12.514-23.876-25.544-34.979-39.042c-11.121-13.519-21.67-27.509-31.608-41.92
			c-9.968-14.455-19.321-29.334-28.022-44.584c-8.742-15.322-16.827-31.018-24.221-47.033c-7.443-16.12-14.188-32.563-20.206-49.268
			c-6.071-16.852-11.404-33.97-15.977-51.288c-4.625-17.516-8.473-35.238-11.533-53.094c-3.103-18.114-5.395-36.367-6.874-54.685
			c-1.505-18.641-2.168-37.349-2-56.05c0.167-18.633,1.161-37.258,2.992-55.801c1.8-18.231,4.409-36.383,7.823-54.382
			c3.367-17.755,7.518-35.36,12.438-52.748c4.868-17.201,10.488-34.19,16.84-50.9c6.299-16.573,13.318-32.872,21.027-48.837
			c7.662-15.868,16.006-31.406,24.999-46.56c8.954-15.089,18.552-29.795,28.756-44.068c10.177-14.235,20.957-28.038,32.3-41.361
			c11.329-13.307,23.219-26.135,35.628-38.44c12.41-12.306,25.339-24.088,38.742-35.305c13.422-11.232,27.319-21.897,41.642-31.955
			c14.364-10.086,29.157-19.562,44.326-28.39c15.238-8.868,30.855-17.083,46.797-24.611c16.043-7.576,32.414-14.458,49.053-20.617
			c16.781-6.212,33.834-11.689,51.094-16.409c17.452-4.773,35.115-8.773,52.921-11.986c18.056-3.259,36.258-5.71,54.533-7.349
			C679.41,109.251,698.078,108.422,716.747,108.422 M717.794,1246.977c5.266,0,10.534-0.076,15.798-0.228
			c18.529-0.534,37.03-2.012,55.406-4.441c18.048-2.386,35.974-5.689,53.685-9.898c17.466-4.151,34.722-9.183,51.681-15.073
			c16.783-5.828,33.275-12.494,49.394-19.963c15.999-7.414,31.632-15.619,46.824-24.572c15.116-8.908,29.796-18.557,43.971-28.897
			c14.134-10.31,27.766-21.307,40.835-32.939c13.054-11.619,25.546-23.871,37.415-36.698c11.878-12.836,23.134-26.248,33.713-40.174
			c10.606-13.961,20.532-28.439,29.728-43.367c9.238-14.996,17.739-30.446,25.459-46.277c7.774-15.942,14.756-32.27,20.908-48.905
			c6.213-16.799,11.58-33.91,16.073-51.249c4.553-17.569,8.21-35.369,10.956-53.31c2.794-18.251,4.644-36.646,5.555-55.088
			c0.925-18.723,0.887-37.494-0.115-56.213c-0.986-18.422-2.911-36.794-5.777-55.018c-2.818-17.917-6.544-35.691-11.166-53.23
			c-4.562-17.311-9.995-34.392-16.272-51.158c-6.217-16.604-13.261-32.898-21.095-48.802c-7.781-15.796-16.341-31.209-25.636-46.164
			c-9.253-14.889-19.234-29.326-29.892-43.243c-10.632-13.884-21.94-27.251-33.867-40.039
			c-11.919-12.781-24.458-24.984-37.557-36.552c-13.114-11.581-26.79-22.526-40.965-32.782
			c-14.218-10.286-28.937-19.879-44.091-28.729c-15.231-8.895-30.899-17.04-46.932-24.392
			c-16.155-7.408-32.679-14.011-49.491-19.773c-16.991-5.824-34.276-10.789-51.767-14.871c-17.74-4.14-35.691-7.372-53.759-9.685
			c-18.401-2.356-36.924-3.759-55.469-4.217c-4.516-0.112-9.031-0.167-13.549-0.167c-14.202,0-28.406,0.552-42.564,1.66
			c-18.311,1.433-36.548,3.799-54.617,7.096c-17.781,3.244-35.398,7.389-52.76,12.417c-17.151,4.967-34.052,10.796-50.619,17.455
			c-16.42,6.6-32.511,14.017-48.196,22.21c-15.588,8.143-30.775,17.052-45.489,26.682c-14.657,9.593-28.845,19.9-42.5,30.872
			c-13.628,10.95-26.724,22.561-39.228,34.778c-12.501,12.214-24.411,25.034-35.673,38.401
			c-11.279,13.387-21.908,27.322-31.834,41.741c-9.961,14.469-19.214,29.424-27.713,44.798c-8.547,15.46-16.33,31.343-23.309,47.572
			c-7.036,16.363-13.255,33.078-18.622,50.062c-5.429,17.178-9.986,34.632-13.652,52.27c-3.721,17.906-6.523,36.003-8.398,54.195
			c-1.912,18.547-2.863,37.192-2.863,55.837c0,0.754,0.002,1.508,0.005,2.262c0.077,18.63,1.103,37.256,3.089,55.78
			c1.949,18.173,4.823,36.247,8.614,54.127c3.735,17.615,8.361,35.042,13.856,52.19c5.433,16.957,11.716,33.641,18.815,49.971
			c7.041,16.197,14.885,32.045,23.491,47.468c8.557,15.337,17.868,30.255,27.883,44.682c9.982,14.379,20.664,28.271,31.993,41.614
			c11.313,13.323,23.272,26.096,35.82,38.262c12.552,12.169,25.693,23.73,39.364,34.628c13.699,10.92,27.929,21.174,42.625,30.71
			c14.755,9.575,29.98,18.427,45.603,26.51c15.722,8.134,31.848,15.489,48.298,22.026c16.601,6.596,33.532,12.36,50.71,17.26
			c17.391,4.961,35.035,9.036,52.839,12.21c18.095,3.225,36.355,5.518,54.685,6.877
			C690.874,1246.481,704.333,1246.977,717.794,1246.977 M716.747,84.272c-19.362,0-38.906,0.873-58.089,2.594
			c-18.942,1.7-38.007,4.269-56.665,7.637c-18.441,3.328-36.946,7.52-55.002,12.458c-17.866,4.886-35.733,10.624-53.107,17.056
			c-17.215,6.372-34.368,13.582-50.982,21.428c-16.489,7.787-32.851,16.392-48.631,25.576
			c-15.691,9.132-31.187,19.056-46.057,29.499c-14.812,10.401-29.368,21.57-43.263,33.198
			c-13.864,11.602-27.405,23.942-40.247,36.677c-12.84,12.732-25.293,26.168-37.012,39.934
			c-11.741,13.791-23.031,28.249-33.557,42.971c-10.566,14.779-20.618,30.184-29.879,45.788
			c-9.312,15.692-18.053,31.97-25.978,48.384c-7.983,16.534-15.336,33.611-21.853,50.758c-6.575,17.299-12.464,35.099-17.503,52.905
			c-5.091,17.993-9.441,36.438-12.928,54.824c-3.528,18.6-6.263,37.613-8.129,56.509c-1.889,19.134-2.935,38.634-3.108,57.958
			c-0.174,19.392,0.525,38.976,2.078,58.209c1.533,18.987,3.936,38.104,7.142,56.82c3.169,18.496,7.201,37.061,11.986,55.181
			c4.734,17.927,10.321,35.863,16.606,53.309c6.227,17.284,13.293,34.512,21.001,51.206c7.649,16.565,16.117,33.01,25.171,48.878
			c9,15.773,18.796,31.359,29.117,46.326c10.28,14.906,21.328,29.56,32.839,43.553c11.487,13.964,23.713,27.61,36.339,40.559
			c12.621,12.945,25.951,25.51,39.618,37.346c13.689,11.854,28.047,23.264,42.677,33.912c14.682,10.686,29.996,20.866,45.516,30.257
			c15.604,9.442,31.799,18.316,48.134,26.378c16.455,8.121,33.456,15.615,50.53,22.276c17.227,6.72,34.958,12.759,52.7,17.948
			c17.927,5.243,36.311,9.75,54.642,13.395c18.544,3.688,37.503,6.588,56.351,8.619c19.083,2.056,38.538,3.274,57.823,3.62
			c3.891,0.07,7.838,0.105,11.731,0.105c15.498,0,31.167-0.56,46.57-1.665c19.032-1.365,38.2-3.601,56.972-6.646
			c18.548-3.008,37.172-6.881,55.356-11.511c17.987-4.58,35.989-10.015,53.507-16.154c17.35-6.08,34.653-13.002,51.427-20.572
			c16.641-7.51,33.168-15.842,49.121-24.764c15.855-8.867,31.531-18.534,46.591-28.732c14.994-10.153,29.744-21.08,43.84-32.476
			c14.062-11.37,27.812-23.482,40.869-36c13.052-12.513,25.728-25.735,37.677-39.301c11.966-13.583,23.494-27.843,34.265-42.381
			c10.806-14.586,21.113-29.808,30.632-45.243c9.569-15.514,18.578-31.625,26.776-47.884c8.255-16.371,15.891-33.295,22.696-50.302
			c6.863-17.153,13.051-34.815,18.391-52.495c5.393-17.858,10.057-36.181,13.861-54.46c3.847-18.486,6.91-37.392,9.106-56.193
			c2.223-19.037,3.613-38.447,4.13-57.69c0.522-19.412,0.172-39.049-1.041-58.364c-1.197-19.076-3.265-38.293-6.147-57.117
			c-2.847-18.6-6.56-37.282-11.035-55.526c-4.427-18.048-9.709-36.115-15.7-53.7c-5.935-17.419-12.711-34.794-20.14-51.644
			c-7.371-16.715-15.565-33.323-24.355-49.36c-8.734-15.935-18.27-31.698-28.345-46.853c-10.028-15.084-20.833-29.93-32.112-44.125
			c-11.249-14.156-23.246-28.009-35.656-41.175c-12.401-13.156-25.516-25.943-38.981-38.006
			c-13.482-12.079-27.64-23.726-42.083-34.616c-14.491-10.927-29.62-21.359-44.967-31.006c-15.427-9.697-31.452-18.839-47.63-27.172
			c-16.287-8.389-33.133-16.166-50.07-23.114c-17.077-7.006-34.669-13.341-52.286-18.832c-17.792-5.544-36.053-10.364-54.274-14.324
			c-18.427-4.005-37.279-7.232-56.031-9.592c-18.984-2.389-38.347-3.949-57.551-4.637C732.391,84.412,724.521,84.272,716.747,84.272
			L716.747,84.272z M717.794,1222.827c-12.83,0-25.803-0.48-38.558-1.425c-17.475-1.296-35.049-3.506-52.234-6.568
			c-16.947-3.021-33.922-6.943-50.452-11.658c-16.334-4.659-32.624-10.203-48.416-16.479c-15.637-6.214-31.154-13.29-46.119-21.032
			c-14.853-7.685-29.506-16.203-43.554-25.319c-13.975-9.069-27.674-18.939-40.717-29.336
			c-13.006-10.367-25.659-21.498-37.607-33.082c-11.944-11.579-23.458-23.878-34.222-36.555
			c-10.786-12.702-21.07-26.078-30.564-39.754c-9.536-13.738-18.497-28.097-26.632-42.677c-8.192-14.682-15.739-29.932-22.432-45.33
			c-6.754-15.537-12.798-31.59-17.964-47.712c-5.224-16.304-9.675-33.07-13.229-49.831c-3.602-16.986-6.369-34.378-8.226-51.693
			c-1.886-17.581-2.879-35.515-2.952-53.305c-0.003-0.717-0.004-1.439-0.004-2.162c0-17.807,0.92-35.759,2.735-53.36
			c1.787-17.334,4.486-34.748,8.021-51.759c3.488-16.785,7.874-33.576,13.034-49.907c5.103-16.148,11.085-32.23,17.78-47.799
			c6.634-15.427,14.123-30.711,22.259-45.428c8.08-14.616,16.986-29.012,26.47-42.787c9.441-13.714,19.673-27.13,30.411-39.875
			c10.715-12.717,22.181-25.06,34.081-36.687c11.902-11.629,24.511-22.807,37.477-33.226c13.001-10.446,26.661-20.368,40.599-29.49
			c14.01-9.169,28.628-17.743,43.446-25.484c14.929-7.799,30.413-14.934,46.022-21.208c15.76-6.336,32.021-11.943,48.33-16.666
			c16.503-4.779,33.452-8.768,50.376-11.856c17.16-3.131,34.711-5.411,52.167-6.777c13.448-1.053,27.134-1.587,40.679-1.587
			c4.295,0,8.653,0.054,12.953,0.16c17.7,0.437,35.532,1.793,52.998,4.029c17.21,2.204,34.482,5.315,51.337,9.249
			c16.639,3.883,33.268,8.66,49.425,14.198c15.983,5.478,31.882,11.83,47.255,18.88c15.24,6.989,30.32,14.826,44.819,23.294
			c14.409,8.415,28.578,17.648,42.114,27.441c13.484,9.755,26.651,20.292,39.135,31.317c12.467,11.01,24.54,22.759,35.882,34.921
			c11.354,12.174,22.24,25.044,32.355,38.251c10.149,13.252,19.756,27.149,28.554,41.307c8.849,14.239,17.086,29.072,24.483,44.089
			c7.456,15.136,14.233,30.815,20.143,46.599c5.97,15.945,11.197,32.378,15.536,48.843c4.392,16.667,7.979,33.768,10.662,50.827
			c2.721,17.303,4.578,34.986,5.518,52.557c0.954,17.82,0.991,35.898,0.11,53.731c-0.869,17.591-2.654,35.297-5.307,52.626
			c-2.614,17.081-6.134,34.207-10.461,50.905c-4.274,16.491-9.438,32.954-15.346,48.93c-5.849,15.816-12.566,31.526-19.964,46.696
			c-7.339,15.049-15.519,29.918-24.315,44.196c-8.744,14.194-18.298,28.131-28.396,41.425c-10.063,13.247-20.899,26.16-32.208,38.38
			c-11.296,12.207-23.323,24.003-35.746,35.061c-12.441,11.073-25.566,21.661-39.01,31.467c-13.497,9.845-27.628,19.132-42,27.602
			c-14.461,8.522-29.506,16.417-44.716,23.466c-15.34,7.108-31.208,13.521-47.162,19.061c-16.129,5.601-32.73,10.443-49.343,14.391
			c-16.827,3.999-34.076,7.18-51.266,9.452c-17.444,2.306-35.254,3.734-52.937,4.243
			C727.883,1222.754,722.802,1222.827,717.794,1222.827L717.794,1222.827z"/>
	</g>
	<g>
		<path fill-rule="evenodd" clip-rule="evenodd" fill="#2B3034" d="M718.323,1414.534c-2.104,0-4.211-0.009-6.316-0.027
			c-18.94-0.169-38.063-1.11-56.839-2.799c-18.559-1.668-37.254-4.107-55.565-7.252c-18.12-3.112-36.325-6.993-54.11-11.533
			c-17.611-4.496-35.265-9.756-52.472-15.634c-17.066-5.83-34.108-12.41-50.655-19.556c-16.438-7.101-32.809-14.939-48.656-23.301
			c-15.75-8.309-31.388-17.347-46.48-26.864c-15.023-9.474-29.87-19.652-44.127-30.253c-14.217-10.569-28.212-21.827-41.596-33.461
			c-13.358-11.611-26.442-23.889-38.889-36.492c-12.446-12.604-24.56-25.842-36.005-39.349c-11.466-13.53-22.55-27.67-32.944-42.026
			c-10.427-14.401-20.421-29.382-29.706-44.526c-9.327-15.215-18.171-30.978-26.289-46.852
			c-8.165-15.969-15.801-32.454-22.694-48.999c-6.943-16.662-13.309-33.811-18.921-50.967
			c-5.659-17.296-10.695-35.046-14.969-52.755c-4.315-17.881-7.962-36.171-10.839-54.363c-2.909-18.393-5.106-37.163-6.53-55.789
			c-1.441-18.846-2.13-38.032-2.045-57.027c0.084-18.962,0.941-38.108,2.547-56.904c1.588-18.584,3.947-37.305,7.013-55.642
			c3.033-18.142,6.835-36.376,11.302-54.196c4.422-17.643,9.607-35.329,15.413-52.567c5.754-17.086,12.262-34.164,19.345-50.759
			c7.03-16.472,14.801-32.881,23.099-48.771c8.25-15.798,17.224-31.479,26.673-46.605c9.408-15.059,19.525-29.95,30.07-44.261
			c10.513-14.267,21.713-28.31,33.29-41.74c11.559-13.411,23.783-26.547,36.331-39.043c12.55-12.498,25.738-24.666,39.196-36.168
			c13.484-11.524,27.576-22.667,41.883-33.117c14.358-10.488,29.294-20.544,44.394-29.888c15.168-9.387,30.89-18.297,46.728-26.481
			c15.928-8.23,32.375-15.934,48.885-22.896c16.632-7.014,33.745-13.451,50.863-19.133c17.271-5.733,34.989-10.844,52.661-15.191
			c17.845-4.39,36.107-8.114,54.279-11.071c18.364-2.987,37.109-5.266,55.715-6.772c18.821-1.523,37.987-2.296,56.967-2.296
			c4.191,0,8.441,0.038,12.632,0.113c18.904,0.336,37.984,1.445,56.708,3.295c18.517,1.831,37.161,4.433,55.416,7.733
			c18.066,3.267,36.215,7.301,53.939,11.992c17.559,4.646,35.149,10.055,52.282,16.074c16.99,5.969,33.962,12.69,50.444,19.977
			c16.366,7.236,32.659,15.209,48.426,23.7c15.682,8.445,31.236,17.612,46.23,27.246c14.936,9.596,29.691,19.896,43.857,30.614
			c14.129,10.689,28.027,22.062,41.309,33.803c13.267,11.729,26.247,24.116,38.581,36.816
			c12.339,12.707,24.343,26.047,35.677,39.651c11.361,13.639,22.328,27.874,32.597,42.311
			c10.307,14.491,20.179,29.561,29.338,44.792c9.203,15.302,17.918,31.147,25.902,47.097c8.032,16.043,15.531,32.605,22.288,49.223
			c6.806,16.736,13.028,33.953,18.495,51.173c5.514,17.36,10.399,35.172,14.524,52.94c4.162,17.933,7.652,36.28,10.373,54.53
			c2.751,18.45,4.785,37.269,6.046,55.936c1.276,18.883,1.795,38.104,1.542,57.126c-0.253,18.92-1.278,38.021-3.047,56.774
			c-1.749,18.535-4.271,37.205-7.494,55.491c-3.188,18.086-7.146,36.263-11.764,54.024c-4.569,17.583-9.904,35.206-15.854,52.378
			c-5.895,17.015-12.545,34.022-19.766,50.548c-7.167,16.398-15.073,32.73-23.501,48.542c-8.382,15.724-17.485,31.319-27.057,46.355
			c-9.535,14.98-19.775,29.782-30.434,43.992c-10.63,14.175-21.945,28.121-33.633,41.452
			c-11.669,13.312-24.001,26.345-36.655,38.735c-12.653,12.393-25.943,24.451-39.5,35.841
			c-13.576,11.408-27.764,22.435-42.168,32.771c-14.448,10.368-29.475,20.301-44.66,29.522
			c-15.258,9.265-31.062,18.045-46.976,26.096c-16.013,8.103-32.536,15.67-49.111,22.492c-16.704,6.875-33.887,13.17-51.07,18.708
			c-17.33,5.586-35.111,10.548-52.85,14.747c-17.896,4.236-36.215,7.805-54.446,10.606c-18.42,2.829-37.215,4.945-55.863,6.288
			C752.31,1413.922,735.229,1414.534,718.323,1414.534z M716.941,80.479c-18.295,0.039-36.768,0.863-54.907,2.45
			c-17.903,1.566-35.935,3.917-53.595,6.985c-17.454,3.033-34.981,6.845-52.097,11.328c-16.946,4.44-33.908,9.649-50.414,15.481
			c-16.365,5.783-32.698,12.325-48.544,19.445c-15.725,7.065-31.365,14.877-46.484,23.219c-15.027,8.291-29.91,17.308-44.235,26.802
			c-14.262,9.454-28.323,19.613-41.793,30.196c-13.43,10.552-26.606,21.79-39.161,33.399c-12.541,11.596-24.766,23.846-36.336,36.41
			c-11.581,12.574-22.791,25.773-33.32,39.23c-10.555,13.489-20.687,27.572-30.113,41.858
			c-9.463,14.341-18.452,29.244-26.714,44.294c-8.31,15.136-16.091,30.793-23.126,46.539c-7.087,15.86-13.597,32.209-19.348,48.594
			c-5.802,16.529-10.976,33.506-15.379,50.459c-4.449,17.131-8.225,34.672-11.222,52.137c-3.031,17.668-5.344,35.711-6.874,53.63
			c-1.548,18.142-2.334,36.625-2.334,54.937c0,1.849,0.008,3.698,0.024,5.546c0.155,18.273,1.096,36.717,2.796,54.817
			c1.678,17.869,4.14,35.866,7.317,53.489c3.141,17.417,7.059,34.905,11.646,51.978c4.541,16.898,9.852,33.815,15.785,50.281
			c5.882,16.322,12.522,32.604,19.734,48.396c7.159,15.675,15.063,31.26,23.494,46.322c8.381,14.976,17.487,29.799,27.062,44.058
			c9.541,14.207,19.783,28.204,30.442,41.604c10.638,13.371,21.953,26.478,33.631,38.955c11.67,12.47,23.993,24.62,36.628,36.116
			c12.648,11.509,25.915,22.641,39.433,33.087c13.562,10.479,27.708,20.526,42.046,29.863c14.408,9.383,29.369,18.282,44.468,26.452
			c15.195,8.222,30.907,15.909,46.699,22.848c15.907,6.991,32.305,13.402,48.74,19.058c16.572,5.7,33.594,10.771,50.591,15.073
			c17.17,4.344,34.751,8.012,52.255,10.901c17.709,2.923,35.788,5.123,53.733,6.539c16.808,1.327,33.925,2,50.876,2
			c1.382,0,2.765-0.005,4.147-0.014c18.286-0.117,36.739-1.019,54.849-2.681c17.886-1.642,35.895-4.066,53.525-7.206
			c17.436-3.106,34.938-6.988,52.019-11.54c16.913-4.507,33.846-9.783,50.326-15.684c16.339-5.85,32.639-12.456,48.446-19.637
			c15.695-7.13,31.299-15.003,46.376-23.401c15-8.354,29.843-17.431,44.116-26.976c14.228-9.513,28.246-19.727,41.666-30.359
			c13.396-10.613,26.526-21.902,39.023-33.553c12.503-11.654,24.679-23.953,36.188-36.555c11.532-12.622,22.69-25.867,33.165-39.365
			c10.506-13.54,20.581-27.665,29.946-41.982c9.407-14.382,18.335-29.323,26.538-44.41c8.251-15.176,15.97-30.869,22.94-46.646
			c7.024-15.896,13.468-32.278,19.152-48.69c5.732-16.553,10.839-33.56,15.175-50.548c4.381-17.163,8.085-34.731,11.008-52.216
			c2.958-17.689,5.196-35.757,6.65-53.7c1.473-18.162,2.18-36.665,2.103-54.997c-0.078-18.289-0.941-36.752-2.565-54.877
			c-1.604-17.889-3.99-35.909-7.095-53.559c-3.07-17.449-6.918-34.964-11.434-52.058c-4.47-16.92-9.712-33.867-15.581-50.37
			c-5.817-16.355-12.392-32.671-19.54-48.495c-7.098-15.711-14.939-31.333-23.309-46.432c-8.318-15.006-17.365-29.87-26.889-44.177
			c-9.479-14.24-19.664-28.28-30.276-41.731c-10.579-13.41-21.842-26.562-33.474-39.094c-11.627-12.522-23.901-24.723-36.482-36.264
			c-12.598-11.556-25.818-22.741-39.296-33.243c-13.514-10.531-27.617-20.635-41.919-30.031
			c-14.369-9.44-29.291-18.399-44.352-26.628c-15.152-8.279-30.828-16.029-46.593-23.035c-15.878-7.057-32.244-13.534-48.642-19.251
			c-16.543-5.768-33.535-10.908-50.504-15.278c-17.141-4.414-34.695-8.154-52.178-11.115c-17.682-2.996-35.737-5.271-53.666-6.763
			c-17.7-1.473-35.726-2.219-53.577-2.219L716.941,80.479z"/>
		<path fill="#43C4DD" d="M718.329,33.282c4.139,0,8.278,0.037,12.416,0.11c18.612,0.331,37.211,1.409,55.736,3.24
			c18.243,1.803,36.415,4.337,54.455,7.599c17.814,3.221,35.499,7.152,52.999,11.783c17.322,4.584,34.463,9.854,51.369,15.793
			c16.769,5.891,33.307,12.441,49.563,19.628c16.155,7.142,32.032,14.913,47.584,23.288c15.479,8.336,30.637,17.27,45.429,26.774
			c14.744,9.473,29.124,19.511,43.1,30.084c13.948,10.552,27.492,21.636,40.595,33.22c13.091,11.574,25.742,23.646,37.916,36.182
			c12.176,12.538,23.875,25.54,35.062,38.968c11.202,13.445,21.891,27.319,32.034,41.58c10.168,14.296,19.789,28.983,28.831,44.017
			c9.076,15.091,17.569,30.532,25.453,46.279c7.925,15.829,15.233,31.968,21.9,48.366c6.714,16.513,12.778,33.29,18.172,50.279
			c5.443,17.141,10.204,34.498,14.27,52.017c4.111,17.714,7.511,35.594,10.193,53.58c2.719,18.233,4.698,36.576,5.941,54.968
			c1.263,18.687,1.765,37.425,1.515,56.153c-0.248,18.63-1.244,37.251-2.995,55.8c-1.723,18.265-4.179,36.461-7.364,54.529
			c-3.145,17.839-7,35.552-11.558,53.083c-4.51,17.351-9.708,34.522-15.577,51.462c-5.821,16.801-12.302,33.374-19.422,49.667
			c-7.075,16.19-14.781,32.105-23.092,47.696c-8.272,15.518-17.143,30.717-26.587,45.552c-9.412,14.785-19.391,29.21-29.907,43.232
			c-10.494,13.993-21.523,27.585-33.052,40.737c-11.519,13.14-23.539,25.841-36.023,38.068
			c-12.487,12.228-25.439,23.981-38.82,35.224c-13.397,11.257-27.224,22.002-41.441,32.205
			c-14.251,10.227-28.894,19.907-43.887,29.011c-15.049,9.138-30.45,17.694-46.159,25.643c-15.79,7.989-31.892,15.364-48.256,22.099
			c-16.477,6.782-33.22,12.916-50.178,18.382c-17.108,5.514-34.435,10.349-51.926,14.489c-17.685,4.186-35.537,7.663-53.499,10.422
			c-18.206,2.797-36.525,4.856-54.897,6.18c-16.6,1.196-33.241,1.79-49.885,1.79c-2.073,0-4.149-0.009-6.222-0.028
			c-18.648-0.166-37.29-1.08-55.865-2.749c-18.287-1.644-36.508-4.02-54.603-7.128c-17.864-3.068-35.605-6.848-53.167-11.332
			c-17.379-4.437-34.582-9.562-51.556-15.36c-16.833-5.75-33.44-12.162-49.77-19.215c-16.225-7.008-32.178-14.647-47.809-22.894
			c-15.557-8.208-30.796-17.016-45.674-26.399c-14.828-9.35-29.296-19.27-43.364-29.729c-14.038-10.436-27.677-21.408-40.879-32.884
			c-13.188-11.464-25.94-23.431-38.219-35.864c-12.28-12.435-24.086-25.337-35.385-38.67
			c-11.312-13.348-22.114-27.128-32.375-41.301c-10.285-14.206-20.025-28.805-29.191-43.757
			c-9.199-15.006-17.819-30.367-25.833-46.038c-8.054-15.751-15.495-31.815-22.299-48.145c-6.85-16.44-13.053-33.149-18.591-50.077
			c-5.585-17.074-10.493-34.37-14.708-51.834c-4.261-17.654-7.813-35.478-10.65-53.416c-2.875-18.179-5.014-36.473-6.418-54.824
			c-1.426-18.647-2.093-37.352-2.01-56.053c0.083-18.667,0.915-37.331,2.504-55.93c1.564-18.309,3.861-36.554,6.892-54.678
			c2.991-17.889,6.695-35.658,11.105-53.251c4.363-17.407,9.416-34.642,15.143-51.65c5.68-16.865,12.022-33.506,19.007-49.873
			c6.94-16.261,14.513-32.25,22.696-47.922c8.143-15.595,16.889-30.875,26.211-45.796c9.289-14.869,19.149-29.381,29.55-43.495
			c10.378-14.083,21.294-27.769,32.715-41.02c11.409-13.237,23.322-26.039,35.705-38.37c12.383-12.331,25.235-24.191,38.52-35.545
			c13.3-11.367,27.033-22.226,41.16-32.545c14.16-10.343,28.716-20.143,43.626-29.371c14.963-9.26,30.284-17.943,45.917-26.022
			c15.711-8.119,31.738-15.626,48.033-22.498c16.403-6.917,33.079-13.191,49.975-18.799c17.041-5.657,34.306-10.637,51.741-14.926
			c17.623-4.335,35.42-7.964,53.333-10.878c18.151-2.952,36.421-5.171,54.75-6.655C680.96,34.031,699.645,33.282,718.329,33.282
			 M718.322,1367.33c1.415,0,2.831-0.005,4.246-0.014c18.653-0.119,37.3-1.027,55.875-2.731c18.273-1.677,36.475-4.125,54.54-7.343
			c17.825-3.175,35.516-7.098,53.01-11.76c17.308-4.612,34.423-9.945,51.287-15.983c16.723-5.987,33.198-12.666,49.37-20.011
			c16.069-7.299,31.839-15.258,47.258-23.846c15.348-8.549,30.348-17.722,44.953-27.487c14.559-9.735,28.725-20.057,42.453-30.933
			c13.703-10.857,26.97-22.264,39.759-34.185c12.781-11.915,25.085-24.342,36.87-37.243c11.794-12.909,23.069-26.292,33.788-40.107
			c10.74-13.841,20.922-28.115,30.512-42.776c9.621-14.71,18.645-29.81,27.041-45.252c8.436-15.516,16.238-31.378,23.377-47.533
			c7.186-16.262,13.699-32.82,19.518-49.62c5.869-16.946,11.03-34.137,15.465-51.513c4.485-17.569,8.227-35.328,11.218-53.211
			c3.032-18.132,5.291-36.393,6.777-54.716c1.51-18.633,2.221-37.33,2.141-56.023c-0.08-18.66-0.948-37.317-2.613-55.903
			c-1.639-18.282-4.049-36.495-7.23-54.574c-3.138-17.836-7.025-35.541-11.651-53.05c-4.576-17.322-9.875-34.452-15.879-51.332
			c-5.953-16.738-12.599-33.23-19.913-49.42c-7.267-16.087-15.194-31.875-23.752-47.314c-8.518-15.367-17.661-30.388-27.397-45.014
			c-9.705-14.58-20-28.768-30.848-42.519c-10.829-13.726-22.21-27.017-34.105-39.83c-11.889-12.806-24.291-25.135-37.168-36.947
			c-12.885-11.82-26.245-23.122-40.037-33.87c-13.818-10.768-28.07-20.979-42.711-30.598c-14.689-9.65-29.769-18.705-45.192-27.132
			c-15.497-8.467-31.34-16.301-47.478-23.473c-16.244-7.219-32.786-13.766-49.57-19.618c-16.93-5.903-34.105-11.099-51.468-15.57
			c-17.555-4.52-35.3-8.3-53.172-11.327c-18.119-3.07-36.368-5.367-54.682-6.891c-18.154-1.511-36.368-2.261-54.585-2.261
			c-0.47,0-0.942,0-1.412,0.001c-18.669,0.04-37.336,0.868-55.934,2.496c-18.292,1.601-36.518,3.973-54.609,7.117
			c-17.848,3.101-35.566,6.953-53.09,11.544c-17.335,4.542-34.481,9.807-51.377,15.777c-16.754,5.92-33.262,12.533-49.47,19.816
			c-16.104,7.236-31.91,15.132-47.368,23.66c-15.386,8.488-30.426,17.603-45.073,27.31c-14.6,9.677-28.81,19.944-42.583,30.766
			c-13.748,10.802-27.062,22.157-39.899,34.028c-12.83,11.864-25.183,24.242-37.021,37.096
			c-11.845,12.862-23.173,26.199-33.948,39.969c-10.795,13.796-21.034,28.027-30.682,42.648
			c-9.679,14.668-18.763,29.729-27.221,45.133c-8.497,15.478-16.362,31.303-23.566,47.424c-7.25,16.226-13.83,32.751-19.717,49.52
			c-5.937,16.913-11.167,34.074-15.673,51.423c-4.556,17.539-8.371,35.271-11.435,53.131c-3.107,18.105-5.442,36.342-7.004,54.645
			c-1.588,18.61-2.378,37.287-2.378,55.964c0,1.883,0.008,3.767,0.024,5.65c0.159,18.643,1.106,37.28,2.849,55.842
			c1.715,18.262,4.201,36.451,7.456,54.502c3.212,17.812,7.171,35.49,11.868,52.969c4.647,17.294,10.015,34.394,16.086,51.241
			c6.021,16.707,12.732,33.165,20.11,49.319c7.332,16.052,15.321,31.803,23.94,47.203c8.579,15.329,17.782,30.309,27.576,44.893
			c9.763,14.539,20.114,28.683,31.017,42.388c10.884,13.681,22.318,26.925,34.264,39.689c11.94,12.758,24.393,25.036,37.317,36.797
			c12.934,11.768,26.34,23.017,40.176,33.71c13.863,10.713,28.159,20.867,42.841,30.428c14.731,9.593,29.85,18.587,45.311,26.953
			c15.536,8.406,31.416,16.177,47.587,23.283c16.279,7.154,32.855,13.635,49.669,19.42c16.962,5.835,34.168,10.962,51.557,15.362
			c17.584,4.449,35.355,8.156,53.251,11.109c18.145,2.995,36.417,5.216,54.75,6.663
			C683.751,1366.653,701.036,1367.33,718.322,1367.33 M718.329,9.131c-19.303,0-38.797,0.786-57.942,2.336
			c-18.924,1.532-37.994,3.85-56.679,6.889c-18.485,3.007-37.066,6.797-55.225,11.264c-17.983,4.423-36.01,9.624-53.581,15.456
			c-17.421,5.783-34.832,12.332-51.751,19.467c-16.795,7.082-33.528,14.92-49.736,23.295c-16.109,8.324-32.103,17.388-47.539,26.941
			c-15.361,9.506-30.556,19.736-45.162,30.405c-14.558,10.634-28.893,21.968-42.606,33.688
			c-13.692,11.702-27.106,24.08-39.871,36.791c-12.764,12.711-25.198,26.073-36.957,39.715
			c-11.777,13.664-23.171,27.95-33.864,42.46c-10.727,14.557-21.019,29.707-30.59,45.027c-9.617,15.394-18.747,31.346-27.137,47.414
			c-8.442,16.168-16.349,32.863-23.501,49.62c-7.204,16.88-13.827,34.256-19.683,51.645c-5.906,17.538-11.182,35.533-15.682,53.486
			c-4.544,18.129-8.413,36.68-11.499,55.14c-3.12,18.658-5.52,37.703-7.135,56.605c-1.633,19.12-2.505,38.593-2.591,57.878
			c-0.086,19.318,0.614,38.833,2.08,58.003c1.449,18.948,3.685,38.043,6.644,56.754c2.927,18.51,6.637,37.118,11.027,55.31
			c4.347,18.012,9.472,36.072,15.231,53.677c5.709,17.451,12.186,34.898,19.252,51.856c7.012,16.831,14.781,33.603,23.09,49.852
			c8.257,16.147,17.255,32.184,26.745,47.665c9.444,15.406,19.611,30.646,30.219,45.298c10.574,14.605,21.849,28.988,33.512,42.751
			c11.645,13.742,23.968,27.209,36.625,40.026c12.657,12.817,25.966,25.306,39.559,37.122
			c13.613,11.833,27.849,23.285,42.314,34.039c14.51,10.787,29.613,21.141,44.89,30.775c15.346,9.678,31.256,18.873,47.287,27.331
			c16.123,8.506,32.778,16.482,49.503,23.705c16.845,7.275,34.185,13.969,51.539,19.897c17.503,5.979,35.466,11.331,53.389,15.907
			c18.097,4.62,36.62,8.568,55.053,11.734c18.629,3.199,37.648,5.682,56.528,7.38c19.099,1.717,38.55,2.674,57.812,2.845
			c2.145,0.019,4.292,0.029,6.437,0.029c17.186,0,34.554-0.623,51.62-1.853c18.968-1.366,38.088-3.518,56.828-6.397
			c18.535-2.847,37.172-6.478,55.395-10.791c18.037-4.27,36.129-9.318,53.772-15.004c17.487-5.636,34.969-12.041,51.962-19.035
			c16.863-6.941,33.675-14.64,49.967-22.883c16.188-8.191,32.267-17.123,47.791-26.549c15.447-9.38,30.733-19.484,45.433-30.033
			c14.651-10.514,29.083-21.73,42.896-33.336c13.789-11.587,27.308-23.853,40.181-36.459c12.87-12.604,25.415-25.86,37.286-39.403
			c11.89-13.563,23.401-27.75,34.213-42.167c10.844-14.459,21.26-29.516,30.959-44.753c9.741-15.303,19.002-31.17,27.526-47.161
			c8.574-16.084,16.618-32.7,23.91-49.386c7.344-16.808,14.111-34.112,20.112-51.431c6.052-17.469,11.479-35.399,16.131-53.292
			c4.697-18.066,8.723-36.559,11.968-54.967c3.28-18.604,5.844-37.598,7.624-56.453c1.8-19.072,2.843-38.501,3.099-57.747
			c0.258-19.34-0.269-38.889-1.568-58.103c-1.284-18.995-3.353-38.14-6.15-56.902c-2.768-18.562-6.318-37.228-10.554-55.478
			c-4.194-18.07-9.166-36.193-14.777-53.866c-5.563-17.519-11.894-35.036-18.818-52.066c-6.87-16.899-14.5-33.749-22.676-50.081
			c-8.122-16.224-16.988-32.345-26.352-47.915c-9.317-15.491-19.358-30.822-29.846-45.568c-10.453-14.697-21.61-29.177-33.159-43.04
			c-11.528-13.838-23.739-27.408-36.292-40.335c-12.549-12.922-25.753-25.522-39.245-37.45
			c-13.512-11.945-27.649-23.514-42.02-34.386c-14.413-10.904-29.424-21.382-44.616-31.143
			c-15.258-9.803-31.082-19.129-47.032-27.719c-16.043-8.64-32.62-16.753-49.269-24.113c-16.77-7.414-34.038-14.252-51.324-20.325
			c-17.433-6.125-35.331-11.627-53.195-16.355c-18.035-4.772-36.499-8.878-54.88-12.202c-18.574-3.359-37.542-6.005-56.377-7.867
			c-19.049-1.883-38.456-3.011-57.682-3.353C726.922,9.169,722.6,9.131,718.329,9.131L718.329,9.131z M718.322,1343.179
			c-16.622,0-33.412-0.66-49.903-1.961c-17.609-1.39-35.346-3.548-52.717-6.416c-17.171-2.834-34.417-6.432-51.26-10.694
			c-16.671-4.218-33.367-9.193-49.625-14.786c-16.112-5.543-32.198-11.832-47.81-18.692c-15.494-6.809-30.907-14.35-45.81-22.414
			c-14.815-8.016-29.493-16.747-43.625-25.95c-14.071-9.163-27.951-19.021-41.252-29.3c-13.264-10.25-26.281-21.172-38.69-32.463
			c-12.396-11.279-24.487-23.202-35.938-35.437c-11.459-12.244-22.561-25.103-32.997-38.222
			c-10.461-13.15-20.51-26.883-29.867-40.817c-9.397-13.993-18.33-28.536-26.55-43.223c-8.269-14.776-16.023-30.064-23.047-45.441
			c-7.075-15.491-13.588-31.463-19.358-47.473c-5.82-16.15-11.029-32.744-15.483-49.321c-4.5-16.746-8.343-33.901-11.424-50.987
			c-3.116-17.282-5.531-34.937-7.178-52.475c-1.668-17.763-2.591-35.86-2.744-53.79c-0.015-1.814-0.023-3.629-0.023-5.445
			c0-17.965,0.77-36.104,2.29-53.911c1.5-17.579,3.769-35.281,6.743-52.614c2.94-17.135,6.644-34.342,11.008-51.144
			c4.32-16.633,9.396-33.286,15.086-49.496c5.64-16.069,12.026-32.106,18.979-47.667c6.901-15.445,14.534-30.805,22.686-45.654
			c8.104-14.761,16.922-29.381,26.208-43.454c9.247-14.014,19.187-27.831,29.544-41.067c10.331-13.203,21.33-26.153,32.692-38.491
			c11.353-12.327,23.348-24.347,35.653-35.725c12.314-11.387,25.242-22.412,38.423-32.77c13.214-10.383,27.01-20.35,41.005-29.626
			c14.052-9.314,28.653-18.16,43.397-26.295c14.83-8.182,30.173-15.845,45.6-22.777c15.543-6.984,31.564-13.401,47.618-19.074
			c16.195-5.722,32.833-10.832,49.451-15.186c16.788-4.398,33.982-8.137,51.104-11.112c17.319-3.01,35.009-5.315,52.58-6.853
			c17.792-1.557,35.92-2.365,53.88-2.404l1.36-0.002c17.524,0,35.215,0.733,52.582,2.178c17.59,1.464,35.304,3.696,52.651,6.635
			c17.147,2.905,34.368,6.574,51.184,10.904c16.645,4.286,33.312,9.328,49.539,14.987c16.085,5.609,32.138,11.962,47.714,18.884
			c15.463,6.871,30.84,14.474,45.706,22.596c14.78,8.076,29.419,16.865,43.511,26.123c14.031,9.219,27.869,19.132,41.128,29.464
			c13.224,10.305,26.196,21.279,38.556,32.617c12.35,11.329,24.393,23.3,35.794,35.581c11.412,12.292,22.462,25.197,32.844,38.357
			c10.407,13.192,20.402,26.967,29.705,40.943c9.341,14.032,18.215,28.613,26.378,43.34c8.21,14.812,15.903,30.136,22.865,45.548
			c7.014,15.526,13.463,31.531,19.167,47.571c5.755,16.18,10.897,32.804,15.284,49.408c4.432,16.774,8.205,33.955,11.215,51.065
			c3.045,17.309,5.387,34.988,6.961,52.545c1.594,17.781,2.441,35.899,2.517,53.85c0.077,17.985-0.617,36.143-2.062,53.969
			c-1.427,17.6-3.622,35.325-6.525,52.684c-2.87,17.159-6.502,34.392-10.798,51.222c-4.251,16.656-9.26,33.338-14.885,49.582
			c-5.576,16.1-11.897,32.17-18.787,47.761c-6.84,15.479-14.411,30.874-22.504,45.758c-8.045,14.796-16.804,29.454-26.036,43.568
			c-9.19,14.051-19.075,27.91-29.381,41.19c-10.276,13.244-21.224,26.238-32.538,38.623c-11.302,12.372-23.249,24.439-35.508,35.866
			c-12.266,11.435-25.148,22.511-38.288,32.921c-13.169,10.433-26.923,20.455-40.879,29.786
			c-14.011,9.368-28.573,18.272-43.281,26.465c-14.792,8.239-30.098,15.963-45.495,22.956c-15.51,7.045-31.498,13.526-47.522,19.262
			c-16.164,5.787-32.772,10.963-49.365,15.384c-16.759,4.465-33.927,8.274-51.027,11.319c-17.293,3.08-34.961,5.459-52.512,7.07
			c-17.773,1.631-35.881,2.516-53.822,2.631C721.049,1343.175,719.686,1343.179,718.322,1343.179L718.322,1343.179z"/>
	</g>
	<path fill-rule="evenodd" clip-rule="evenodd" fill="#010002" d="M716.747,649.91c18.006,0,35.667,6.463,49.402,18.111
		c13.519,11.466,22.798,27.546,25.855,45.016c3.141,17.953-0.283,36.77-9.644,52.415c-9.035,15.102-23.274,26.844-39.846,32.78
		c-17.21,6.164-36.494,5.9-53.524-0.748c-16.385-6.397-30.286-18.521-38.893-33.857c-8.93-15.913-11.834-34.861-8.177-52.733
		c3.548-17.343,13.257-33.134,27.057-44.208C682.463,655.864,699.457,649.91,716.747,649.91z"/>
	<g>
		<path fill-rule="evenodd" clip-rule="evenodd" fill="#2B3034" d="M716.734,814.747c-10.257,0-20.29-1.731-29.819-5.146
			c-19.228-6.89-35.608-20.367-46.125-37.951c-10.871-18.176-14.839-39.73-11.172-60.694c3.543-20.257,14.172-38.775,29.929-52.144
			c15.947-13.528,36.26-20.979,57.199-20.979c20.067,0,39.72,6.901,55.341,19.434c16.094,12.911,27.223,31.097,31.339,51.206
			c4.273,20.876,0.906,42.563-9.48,61.065c-10.02,17.85-26.017,31.77-45.043,39.195
			C738.679,812.724,727.856,814.747,716.734,814.747z"/>
		<path fill="#43C4DD" d="M716.747,649.91c17.294,0,34.293,5.954,47.785,16.777c13.802,11.073,23.516,26.864,27.066,44.208
			c3.658,17.873,0.753,36.821-8.18,52.733c-8.61,15.338-22.516,27.461-38.905,33.857c-8.853,3.455-18.314,5.186-27.777,5.186
			c-8.741,0-17.484-1.478-25.747-4.438c-16.569-5.937-30.803-17.68-39.834-32.781c-9.358-15.646-12.781-34.462-9.641-52.415
			c3.055-17.468,12.331-33.549,25.847-45.016C681.089,656.373,698.745,649.91,716.747,649.91 M716.747,625.759
			c-23.798,0-46.886,8.469-65.012,23.846c-17.905,15.19-29.984,36.24-34.012,59.271c-4.166,23.816,0.346,48.311,12.704,68.973
			c11.948,19.976,30.562,35.29,52.414,43.119c10.84,3.884,22.244,5.854,33.893,5.854c12.63,0,24.93-2.301,36.557-6.839
			c21.622-8.439,39.8-24.254,51.184-44.533c11.807-21.032,15.636-45.678,10.781-69.398c-4.68-22.863-17.327-43.534-35.613-58.203
			C761.888,633.604,739.55,625.759,716.747,625.759L716.747,625.759z"/>
	</g>
	<g>
		<path fill-rule="evenodd" clip-rule="evenodd" fill="#2B3034" d="M564.676,643.805c0.172-1.036,0.398-2.155,0.679-3.365
			c0.953-4.102,2.489-8.326,4.565-12.555c4.224-8.603,10.659-17.284,19.127-25.803c8.24-8.29,18.1-16.131,29.307-23.307
			c10.72-6.864,22.069-12.746,33.733-17.482c11.35-4.61,21.662-7.667,31.523-9.348c5.029-0.857,9.272-1.273,12.973-1.273
			c2.921,0,5.562,0.265,7.85,0.789c1.092,0.25,1.883,0.544,2.397,0.782c0.029,0.413,0.054,0.99,0.057,1.785
			c0.003,0.998,0.015,1.999,0.027,3c0.036,2.938,0.069,5.713-0.161,7.917c-0.13,1.247-0.512,2.5-1.168,3.831
			c-2.383,4.834-3.953,6.23-4.676,6.631c-2.448,1.359-6.536,2.126-10.211,2.699c-3.167,0.493-6.427,0.893-9.877,1.316
			c-3.808,0.467-7.745,0.95-11.788,1.591c-10.897,1.728-20.365,4.232-28.944,7.657c-11.43,4.563-22.076,11.077-31.642,19.362
			c-5.747,4.978-10.492,9.831-14.507,14.836c-3.039,3.789-5.484,7.615-7.641,10.992l-0.394,0.616
			c-2.144,3.352-4.36,6.818-6.226,8.425c-0.203,0.175-0.74,0.638-2.251,0.638c-2.448,0-4.77,0.073-7.016,0.144
			c-2.002,0.063-3.894,0.123-5.667,0.123C564.721,643.805,564.699,643.805,564.676,643.805z"/>
		<path fill="#43C4DD" d="M696.583,528.936c-5.585,0-11.199,0.658-16.624,1.582c-12.369,2.108-24.44,5.922-36.05,10.636
			c-12.98,5.271-25.479,11.763-37.276,19.317c-11.856,7.591-23.067,16.294-33,26.287c-9.224,9.279-17.439,19.766-23.223,31.548
			c-2.694,5.487-4.841,11.254-6.226,17.213c-0.985,4.239-1.688,8.614-1.658,12.976c0.023,3.26,0.481,6.653,2.065,9.551
			c2.677,4.896,8.077,6.625,13.307,7.177c2.275,0.24,4.558,0.318,6.846,0.318c4.227,0,8.467-0.266,12.682-0.266
			c6.077,0,11.815-1.923,16.438-5.905c4.263-3.673,7.346-8.485,10.351-13.183c2.117-3.31,4.216-6.648,6.678-9.718
			c3.497-4.359,7.563-8.352,11.782-12.006c7.575-6.56,16.159-11.889,25.471-15.606c7.806-3.116,16.002-5.062,24.289-6.376
			c7.178-1.138,14.423-1.78,21.604-2.898c5.973-0.93,12.079-2.209,17.415-5.17c6.389-3.545,10.452-9.589,13.625-16.026
			c1.742-3.535,2.882-7.265,3.291-11.188c0.458-4.393,0.267-8.841,0.251-13.249c-0.015-4.099-0.403-8.098-2.248-11.824
			c-3.295-6.657-10.106-10.255-17.093-11.854C705.13,529.323,700.865,528.936,696.583,528.936L696.583,528.936z"/>
	</g>
</g>
</svg>
