<?xml version="1.0" encoding="utf-8"?>
<!-- Generator: Adobe Illustrator 17.1.0, SVG Export Plug-In . SVG Version: 6.00 Build 0)  -->
<!DOCTYPE svg PUBLIC "-//W3C//DTD SVG 1.1//EN" "http://www.w3.org/Graphics/SVG/1.1/DTD/svg11.dtd">
<svg version="1.1" id="Capa_1" xmlns="http://www.w3.org/2000/svg" xmlns:xlink="http://www.w3.org/1999/xlink" x="0px" y="0px"
	 viewBox="58.8 128.2 283.5 152.1" enable-background="new 58.8 128.2 283.5 152.1" xml:space="preserve">
<g id="Layer_1">
	<polygon fill="#F26522" points="195.8,259.8 189.3,280.3 185.1,280.3 191.5,259.8 	"/>
	<path fill="#58595B" d="M109.8,265.8c-0.2-0.6-0.4-1.1-0.6-1.6c-0.3-0.5-0.6-0.9-1-1.3c-0.4-0.4-0.9-0.6-1.5-0.8
		c-0.6-0.2-1.2-0.3-2-0.3c-1.1,0-2,0.2-2.8,0.7c-0.8,0.4-1.4,1-1.9,1.8c-0.5,0.7-0.9,1.6-1.1,2.5c-0.2,0.9-0.4,1.9-0.4,2.9
		c0,1,0.1,1.9,0.4,2.9c0.2,0.9,0.6,1.8,1.1,2.5c0.5,0.7,1.1,1.3,1.9,1.8c0.8,0.4,1.7,0.7,2.8,0.7c0.8,0,1.5-0.1,2.1-0.4
		c0.6-0.3,1.1-0.7,1.6-1.1c0.4-0.5,0.8-1.1,1-1.7c0.2-0.7,0.4-1.4,0.5-2.1h3.5c-0.1,1.2-0.3,2.3-0.8,3.4c-0.4,1-1.1,1.9-1.8,2.6
		c-0.8,0.7-1.7,1.3-2.7,1.7c-1,0.4-2.2,0.6-3.4,0.6c-1.5,0-2.9-0.3-4.1-0.8c-1.2-0.6-2.2-1.3-3.1-2.3c-0.8-1-1.5-2.1-1.9-3.4
		c-0.5-1.3-0.7-2.7-0.7-4.2c0-1.5,0.2-2.8,0.7-4.1c0.4-1.3,1.1-2.4,1.9-3.4c0.8-1,1.9-1.8,3.1-2.3c1.2-0.6,2.6-0.9,4.1-0.9
		c1.1,0,2.2,0.2,3.2,0.5c1,0.3,1.9,0.8,2.7,1.4c0.8,0.6,1.4,1.3,1.9,2.2c0.5,0.9,0.8,1.8,0.9,3L109.8,265.8L109.8,265.8z"/>
	<polygon fill="#58595B" points="115.3,259.8 118.9,259.8 118.9,269.1 128,259.8 132.4,259.8 124.2,268 133,280.3 128.5,280.3 
		121.8,270.5 118.9,273.4 118.9,280.3 115.3,280.3 	"/>
	<polygon fill="#58595B" points="133.5,259.8 148.3,259.8 148.3,262.9 137.1,262.9 137.1,268.3 147.4,268.3 147.4,271.2 
		137.1,271.2 137.1,277.2 148.5,277.2 148.5,280.3 133.5,280.3 	"/>
	<path fill="#58595B" d="M150.2,259.8h9.8c2.3,0,4,0.5,5.1,1.5c1.1,1,1.7,2.3,1.7,4.1c0,1-0.1,1.8-0.4,2.4c-0.3,0.6-0.6,1.2-1,1.6
		c-0.4,0.4-0.8,0.7-1.1,0.8c-0.4,0.2-0.6,0.3-0.8,0.3v0.1c0.3,0,0.6,0.1,1,0.3c0.4,0.2,0.7,0.4,1,0.7c0.3,0.3,0.6,0.8,0.8,1.3
		c0.2,0.5,0.3,1.2,0.3,2c0,1.2,0.1,2.3,0.3,3.3c0.2,1,0.5,1.7,0.8,2.1h-3.9c-0.3-0.4-0.4-0.9-0.5-1.5c0-0.5-0.1-1.1-0.1-1.6
		c0-0.9-0.1-1.7-0.2-2.4c-0.1-0.7-0.3-1.2-0.6-1.7c-0.3-0.5-0.7-0.8-1.3-1s-1.2-0.3-2-0.3h-5.3v8.4h-3.6V259.8z M153.8,269.1h5.9
		c1.1,0,2-0.3,2.6-0.8c0.6-0.5,0.9-1.4,0.9-2.5c0-0.6-0.1-1.2-0.3-1.6c-0.2-0.4-0.5-0.7-0.8-1c-0.3-0.2-0.7-0.4-1.1-0.5
		c-0.4-0.1-0.9-0.1-1.3-0.1h-5.8L153.8,269.1L153.8,269.1z"/>
	<path fill="#58595B" d="M171.3,273c0,0.8,0.1,1.5,0.4,2c0.3,0.6,0.6,1,1.1,1.4c0.5,0.4,1,0.6,1.7,0.8c0.6,0.2,1.3,0.2,2,0.2
		c0.8,0,1.5-0.1,2-0.3s1-0.4,1.4-0.7s0.6-0.6,0.7-1c0.2-0.4,0.2-0.8,0.2-1.1c0-0.8-0.2-1.4-0.5-1.7c-0.4-0.4-0.7-0.6-1.2-0.8
		c-0.7-0.3-1.6-0.5-2.5-0.8c-1-0.2-2.2-0.6-3.6-0.9c-0.9-0.2-1.6-0.5-2.2-0.9c-0.6-0.4-1-0.8-1.4-1.3c-0.3-0.5-0.6-0.9-0.7-1.5
		c-0.1-0.5-0.2-1-0.2-1.6c0-1,0.2-1.9,0.6-2.7s1-1.4,1.7-1.9c0.7-0.5,1.5-0.9,2.4-1.1c0.9-0.2,1.8-0.4,2.7-0.4c1.1,0,2.1,0.1,3,0.4
		c0.9,0.3,1.8,0.7,2.5,1.3c0.7,0.6,1.3,1.2,1.7,2.1c0.4,0.8,0.6,1.8,0.6,2.8h-3.6c-0.1-1.3-0.5-2.3-1.4-2.8
		c-0.8-0.5-1.8-0.8-3.1-0.8c-0.4,0-0.9,0-1.3,0.1c-0.4,0.1-0.8,0.2-1.2,0.4c-0.4,0.2-0.7,0.5-0.9,0.8c-0.2,0.3-0.4,0.8-0.4,1.3
		c0,0.7,0.2,1.3,0.7,1.7c0.5,0.4,1,0.7,1.8,0.9c0.1,0,0.4,0.1,0.9,0.2c0.5,0.1,1.1,0.3,1.8,0.5c0.7,0.2,1.3,0.3,1.9,0.5
		c0.6,0.2,1.1,0.3,1.3,0.4c0.7,0.2,1.3,0.5,1.8,0.9c0.5,0.4,0.9,0.8,1.3,1.3c0.3,0.5,0.6,1,0.7,1.5c0.2,0.5,0.2,1.1,0.2,1.6
		c0,1.1-0.2,2.1-0.7,2.9c-0.5,0.8-1.1,1.5-1.9,2c-0.8,0.5-1.6,0.9-2.6,1.1s-2,0.4-3,0.4c-1.2,0-2.3-0.1-3.3-0.4
		c-1-0.3-1.9-0.7-2.7-1.3c-0.8-0.6-1.4-1.4-1.8-2.3c-0.5-0.9-0.7-2-0.7-3.3L171.3,273L171.3,273z"/>
	<polygon fill="#58595B" points="197.4,259.8 211.6,259.8 211.6,262.9 201,262.9 201,268.3 210.3,268.3 210.3,271.2 201,271.2 
		201,280.3 197.4,280.3 	"/>
	<path fill="#58595B" d="M221.8,258.8c1.5,0,2.9,0.3,4.1,0.9c1.2,0.6,2.2,1.4,3.1,2.3c0.8,1,1.5,2.1,1.9,3.4
		c0.4,1.3,0.7,2.7,0.7,4.1c0,1.5-0.2,2.9-0.7,4.2c-0.4,1.3-1.1,2.4-1.9,3.4c-0.8,1-1.9,1.7-3.1,2.3c-1.2,0.6-2.6,0.8-4.1,0.8
		c-1.5,0-2.9-0.3-4.1-0.8c-1.2-0.6-2.2-1.3-3.1-2.3s-1.5-2.1-1.9-3.4c-0.4-1.3-0.7-2.7-0.7-4.2c0-1.5,0.2-2.8,0.7-4.1
		c0.4-1.3,1.1-2.4,1.9-3.4c0.8-1,1.9-1.8,3.1-2.3C218.9,259.1,220.3,258.8,221.8,258.8 M221.8,261.7c-1.1,0-2,0.2-2.8,0.7
		c-0.8,0.4-1.4,1-1.9,1.8s-0.9,1.6-1.1,2.5c-0.2,0.9-0.4,1.9-0.4,2.9c0,1,0.1,1.9,0.4,2.9c0.2,0.9,0.6,1.8,1.1,2.5s1.1,1.3,1.9,1.8
		c0.8,0.4,1.7,0.7,2.8,0.7c1.1,0,2-0.2,2.8-0.7s1.4-1,1.9-1.8c0.5-0.7,0.9-1.6,1.1-2.5c0.2-0.9,0.4-1.9,0.4-2.9c0-1-0.1-1.9-0.4-2.9
		c-0.2-0.9-0.6-1.8-1.1-2.5c-0.5-0.7-1.1-1.3-1.9-1.8S222.9,261.7,221.8,261.7"/>
	<path fill="#58595B" d="M233.2,259.3h3.6v12c0,0.7,0,1.4,0.1,2.1s0.3,1.3,0.6,1.9c0.3,0.6,0.8,1,1.4,1.4c0.6,0.4,1.5,0.5,2.7,0.5
		c1.2,0,2.1-0.2,2.7-0.5c0.6-0.4,1.1-0.8,1.4-1.4c0.3-0.6,0.5-1.2,0.6-1.9s0.1-1.4,0.1-2.1v-12h3.6v13.1c0,1.3-0.2,2.5-0.6,3.4
		s-1,1.8-1.7,2.5c-0.7,0.7-1.6,1.2-2.7,1.5s-2.2,0.5-3.4,0.5c-1.3,0-2.4-0.2-3.4-0.5c-1-0.3-1.9-0.8-2.7-1.5
		c-0.7-0.7-1.3-1.5-1.7-2.5s-0.6-2.1-0.6-3.4L233.2,259.3L233.2,259.3z"/>
	<polygon fill="#58595B" points="252.6,259.8 256.4,259.8 265.8,274.9 265.8,274.9 265.8,259.8 269.3,259.8 269.3,280.3 
		265.5,280.3 256.1,265.2 256,265.2 256,280.3 252.6,280.3 	"/>
	<path fill="#58595B" d="M272.1,259.8h8.5c1.6,0,2.9,0.3,4.1,0.8s2.1,1.3,2.8,2.2c0.7,0.9,1.3,2,1.6,3.3s0.5,2.6,0.5,4
		c0,1.4-0.2,2.8-0.5,4s-0.9,2.3-1.6,3.3c-0.7,0.9-1.7,1.7-2.8,2.2s-2.5,0.8-4.1,0.8h-8.5V259.8z M275.7,277.4h3.5
		c1.4,0,2.5-0.2,3.4-0.6c0.9-0.4,1.6-0.9,2.1-1.6c0.5-0.7,0.9-1.4,1-2.3c0.2-0.9,0.3-1.9,0.3-2.9c0-1-0.1-2-0.3-2.9
		c-0.2-0.9-0.5-1.7-1-2.3c-0.5-0.7-1.2-1.2-2.1-1.6c-0.9-0.4-2-0.6-3.4-0.6h-3.5V277.4z"/>
	<polygon fill="#58595B" points="291.4,259.8 306.2,259.8 306.2,262.9 295,262.9 295,268.3 305.3,268.3 305.3,271.2 295,271.2 
		295,277.2 306.4,277.2 306.4,280.3 291.4,280.3 	"/>
	<path fill="#58595B" d="M308.1,259.8h9.8c2.3,0,4,0.5,5.1,1.5c1.1,1,1.7,2.3,1.7,4.1c0,1-0.1,1.8-0.4,2.4c-0.3,0.6-0.6,1.2-1,1.6
		c-0.4,0.4-0.8,0.7-1.1,0.8c-0.4,0.2-0.6,0.3-0.8,0.3v0.1c0.3,0,0.6,0.1,1,0.3c0.4,0.2,0.7,0.4,1,0.7s0.6,0.8,0.8,1.3s0.3,1.2,0.3,2
		c0,1.2,0.1,2.3,0.3,3.3c0.2,1,0.5,1.7,0.8,2.1h-3.9c-0.3-0.4-0.4-0.9-0.5-1.5c0-0.5-0.1-1.1-0.1-1.6c0-0.9-0.1-1.7-0.2-2.4
		c-0.1-0.7-0.3-1.2-0.6-1.7c-0.3-0.5-0.7-0.8-1.3-1c-0.5-0.2-1.2-0.3-2-0.3h-5.3v8.4h-3.6L308.1,259.8L308.1,259.8z M311.6,269.1
		h5.9c1.1,0,2-0.3,2.6-0.8s0.9-1.4,0.9-2.5c0-0.6-0.1-1.2-0.3-1.6s-0.5-0.7-0.8-1s-0.7-0.4-1.1-0.5c-0.4-0.1-0.9-0.1-1.3-0.1h-5.8
		L311.6,269.1L311.6,269.1z"/>
	<path fill="#58595B" d="M329.2,273c0,0.8,0.1,1.5,0.4,2c0.3,0.6,0.6,1,1.1,1.4c0.5,0.4,1,0.6,1.7,0.8c0.6,0.2,1.3,0.2,2,0.2
		c0.8,0,1.5-0.1,2-0.3s1-0.4,1.4-0.7c0.3-0.3,0.6-0.6,0.7-1c0.2-0.4,0.2-0.8,0.2-1.1c0-0.8-0.2-1.4-0.5-1.7
		c-0.4-0.4-0.7-0.6-1.2-0.8c-0.7-0.3-1.6-0.5-2.5-0.8c-1-0.2-2.2-0.6-3.6-0.9c-0.9-0.2-1.6-0.5-2.2-0.9c-0.6-0.4-1-0.8-1.4-1.3
		c-0.3-0.5-0.6-0.9-0.7-1.5s-0.2-1-0.2-1.6c0-1,0.2-1.9,0.6-2.7c0.4-0.8,1-1.4,1.7-1.9c0.7-0.5,1.5-0.9,2.4-1.1
		c0.9-0.2,1.8-0.4,2.7-0.4c1.1,0,2.1,0.1,3,0.4c0.9,0.3,1.8,0.7,2.5,1.3c0.7,0.6,1.3,1.2,1.7,2.1c0.4,0.8,0.6,1.8,0.6,2.8h-3.6
		c-0.1-1.3-0.5-2.3-1.4-2.8s-1.8-0.8-3.1-0.8c-0.4,0-0.9,0-1.3,0.1c-0.4,0.1-0.8,0.2-1.2,0.4c-0.4,0.2-0.7,0.5-0.9,0.8
		c-0.2,0.3-0.4,0.8-0.4,1.3c0,0.7,0.2,1.3,0.7,1.7c0.4,0.4,1,0.7,1.8,0.9c0.1,0,0.4,0.1,0.9,0.2c0.5,0.1,1.1,0.3,1.8,0.5
		c0.7,0.2,1.3,0.3,1.9,0.5c0.6,0.2,1.1,0.3,1.3,0.4c0.7,0.2,1.3,0.5,1.8,0.9c0.5,0.4,0.9,0.8,1.3,1.3c0.3,0.5,0.6,1,0.7,1.5
		c0.2,0.5,0.2,1.1,0.2,1.6c0,1.1-0.2,2.1-0.7,2.9c-0.5,0.8-1.1,1.5-1.9,2c-0.8,0.5-1.6,0.9-2.6,1.1c-1,0.2-2,0.4-3,0.4
		c-1.2,0-2.3-0.1-3.3-0.4c-1-0.3-1.9-0.7-2.7-1.3c-0.8-0.6-1.4-1.4-1.8-2.3s-0.7-2-0.7-3.3L329.2,273L329.2,273z"/>
	<path fill="#58595B" d="M83.7,259.8h3.8l7.9,20.5h-3.9l-1.9-5.4h-8.2l-1.9,5.4h-3.7L83.7,259.8z M82.4,272.1h6.3l-3.1-8.8h-0.1
		L82.4,272.1z"/>
	<polygon fill="#58595B" points="58.8,259.8 62.4,259.8 62.4,268 71.8,268 71.8,259.8 75.3,259.8 75.3,280.3 71.8,280.3 71.8,271.1 
		62.4,271.1 62.4,280.3 58.8,280.3 	"/>
</g>
<g id="Layer_3">
	<g>
		<polygon fill="#F26522" points="241.4,128.2 206.6,238.2 184.1,238.2 218.4,128.2 		"/>
		<polygon fill="#F26522" points="325.6,128.2 325.6,148.5 272.7,148.5 272.7,173.8 318.5,173.8 318.5,192.5 272.7,192.5 
			272.7,237.7 248.6,237.7 248.6,128.2 		"/>
		<polygon fill="#F26522" points="108.4,128.2 108.4,170.2 152.6,170.2 152.6,128.2 176.7,128.2 176.7,237.7 152.6,237.7 
			152.6,190.5 108.4,190.5 108.4,237.7 84.3,237.7 84.3,128.2 		"/>
	</g>
	<g>
		<polygon fill="#F26522" points="241.4,128.2 206.6,238.2 184.1,238.2 218.4,128.2 		"/>
		<polygon fill="#58595B" points="325.6,128.2 325.6,148.5 272.7,148.5 272.7,173.8 318.5,173.8 318.5,192.5 272.7,192.5 
			272.7,237.7 248.6,237.7 248.6,128.2 		"/>
		<polygon fill="#58595B" points="108.4,128.2 108.4,170.2 152.6,170.2 152.6,128.2 176.7,128.2 176.7,237.7 152.6,237.7 
			152.6,190.5 108.4,190.5 108.4,237.7 84.3,237.7 84.3,128.2 		"/>
	</g>
</g>
<g id="Layer_2" display="none">
</g>
</svg>
