<?xml version="1.0" encoding="utf-8"?>
<!-- Generator: Adobe Illustrator 17.1.0, SVG Export Plug-In . SVG Version: 6.00 Build 0)  -->
<!DOCTYPE svg PUBLIC "-//W3C//DTD SVG 1.1//EN" "http://www.w3.org/Graphics/SVG/1.1/DTD/svg11.dtd">
<svg version="1.1" id="Capa_1" xmlns="http://www.w3.org/2000/svg" xmlns:xlink="http://www.w3.org/1999/xlink" x="0px" y="0px"
	 viewBox="0 0 582.6 325.4" enable-background="new 0 0 582.6 325.4" xml:space="preserve">
<path opacity="0.6" fill="#009FAD" d="M166.3,155.4c0,0-62.7-60-121-32c0,0-68.1,31.2-37.4,56.4c0,0,19.9,18.1,40-16.5
	c0,0,13.1-28.5,52.9-27.3C100.8,136,133.5,139.3,166.3,155.4z"/>
<path opacity="0.3" fill="#009FAD" d="M70.7,274.5c0,0-19.6-73.4,38.6-72.5c0,0,56.5,9.3,32.6-33.7c0,0-20.9-37.2-69-4.8
	C72.9,163.5-7.6,220.1,70.7,274.5z"/>
<path opacity="0.6" fill="#009FAD" d="M569.6,151.7c0,0-62.7-60-121-32c0,0-68.1,31.2-37.4,56.4c0,0,19.9,18.1,40-16.5
	c0,0,13.1-28.5,52.9-27.3C504.1,132.3,536.7,135.6,569.6,151.7z"/>
<path opacity="0.4" fill="#009FAD" d="M458.3,176.4c0,0,73.4-19.6,72.5,38.6c0,0-9.3,56.5,33.7,32.6c0,0,37.2-20.9,4.8-69
	C569.4,178.6,512.7,98.1,458.3,176.4z"/>
<g>
	<g>
		<path fill="#FFFFFF" stroke="#162F49" stroke-width="8" stroke-miterlimit="10" d="M384,105.5c0,56.1-45.5,101.5-101.5,101.5
			s-101.5-45.5-101.5-101.5C180.9,49.5,226.4,4,282.5,4S384,49.5,384,105.5z"/>
		<path opacity="0.4" fill="#009FAD" d="M363.8,106.2c0,44.9-36.4,81.3-81.3,81.3c-44.9,0-81.3-36.4-81.3-81.3
			c0-44.9,36.4-81.3,81.3-81.3C327.4,24.8,363.8,61.3,363.8,106.2z"/>
		<path fill="#009FAD" d="M260.7,92.9c0,0,13-14,0-31.3c0,0-17.6-20.2-30.6-5.9c0,0-14.7,16.2,4.6,20.2
			C234.6,76,254.8,76,260.7,92.9z"/>
		<path fill="#009FAD" d="M305.1,92.1c0,0-13-14,0-31.3c0,0,17.6-20.2,30.7-5.9c0,0,14.7,16.2-4.6,20.2
			C331.2,75.1,311,75.1,305.1,92.1z"/>
		<path fill="#009FAD" d="M258.5,114.2c0,0,13,14,0,31.3c0,0-17.6,20.2-30.6,5.9c0,0-14.7-16.2,4.6-20.2
			C232.5,131.1,252.7,131.1,258.5,114.2z"/>
		<path fill="#FFFFFF" d="M256.3,124c0,0,9.6,10.3,0,23c0,0-12.9,14.8-22.5,4.3c0,0-10.8-11.9,3.4-14.8
			C237.2,136.4,252,136.4,256.3,124z"/>
		<path fill="#FFFFFF" d="M257.4,80.9c0,0,8-11.5-3.2-22.7c0,0-14.9-12.9-22.9-1.1c0,0-9,13.3,5.4,14.2
			C236.7,71.3,251.4,69.2,257.4,80.9z"/>
		<path fill="#009FAD" d="M306.4,116.5c0,0-13,14,0,31.3c0,0,17.6,20.2,30.6,5.9c0,0,14.7-16.2-4.6-20.2
			C332.5,133.4,312.3,133.4,306.4,116.5z"/>
		<path fill="#FFFFFF" d="M310.5,126.6c0,0-9.6,10.3,0,23c0,0,12.9,14.8,22.5,4.3c0,0,10.8-11.9-3.4-14.8
			C329.7,139.1,314.8,139.1,310.5,126.6z"/>
		<path fill="#FFFFFF" d="M307.8,80c0,0-7.4-11.9,4.4-22.6c0,0,15.5-12.1,22.9,0.1c0,0,8.3,13.8-6.1,13.9
			C328.9,71.4,314.4,68.6,307.8,80z"/>
		<path opacity="0.7" fill="#009FAD" d="M307.9,81.7c0,0-5.3-8.4,3.1-16c0,0,11-8.6,16.2,0.1c0,0,5.9,9.7-4.3,9.9
			C322.9,75.6,312.6,73.6,307.9,81.7z"/>
		<path opacity="0.7" fill="#009FAD" d="M309.4,124.3c0,0-6.4,7.6,0.8,16.3c0,0,9.7,10,16.1,2.2c0,0,7.2-8.8-2.9-10.4
			C323.4,132.4,312.9,133,309.4,124.3z"/>
		<path opacity="0.7" fill="#009FAD" d="M258.2,82.3c0,0,6.1-7.9-1.5-16.2c0,0-10.1-9.6-16.2-1.6c0,0-6.8,9.1,3.3,10.3
			C243.9,74.7,254.4,73.8,258.2,82.3z"/>
		<path opacity="0.7" fill="#009FAD" d="M256.1,123.5c0,0,7.5,6.5,1.8,16.2c0,0-8,11.5-15.5,4.8c0,0-8.5-7.6,1.2-10.7
			C243.5,133.7,254,132.6,256.1,123.5z"/>
		<path fill="#FFFFFF" d="M265.4,105.8c0,0-17.6-23.8-34.5-5C230.9,100.8,239.9,117,265.4,105.8z"/>
		<path fill="#FFFFFF" d="M300.2,105.3c0,0,22.3-19.4,34.7,2.6C335,107.9,322.7,121.9,300.2,105.3z"/>
		<path fill="#FFFFFF" d="M281.9,88.4c0,0,21.9-19.9,1.5-34.8C283.4,53.6,268.1,64.2,281.9,88.4z"/>
		<path fill="#FFFFFF" d="M282.7,122.6c0,0-21.9,19.9-1.5,34.8C281.3,157.4,296.6,146.8,282.7,122.6z"/>
		<path fill="#FFFFFF" d="M294.1,105.5c0,6.5-5.2,11.7-11.7,11.7l0,0c-6.5,0-11.7-5.2-11.7-11.7l0,0c0-6.5,5.3-11.7,11.7-11.7l0,0
			C288.8,93.7,294.1,99,294.1,105.5L294.1,105.5z"/>
	</g>
	<g>
		<path fill="#002A47" d="M143.3,253.2c0,18.1-11.1,27.8-24.6,27.8c-14,0-23.8-10.9-23.8-26.9c0-16.8,10.4-27.8,24.5-27.8
			C134,226.4,143.3,237.5,143.3,253.2z M102.2,254c0,11.4,6.1,21.5,16.9,21.5c10.8,0,16.9-10,16.9-22c0-10.6-5.5-21.6-16.9-21.6
			C107.8,232,102.2,242.5,102.2,254z"/>
		<path fill="#002A47" d="M151.9,254.6c0-4.9-0.2-8.8-0.3-12.4h6.1l0.4,6.5h0.2c2.7-4.6,7.3-7.3,13.5-7.3c9.3,0,16.2,7.8,16.2,19.2
			c0,13.7-8.4,20.4-17.3,20.4c-5,0-9.4-2.2-11.7-6h-0.2v20.6h-6.8V254.6z M158.8,264.8c0,1,0.1,2,0.3,2.8c1.3,4.8,5.4,8.1,10.4,8.1
			c7.3,0,11.5-6,11.5-14.7c0-7.5-4-14-11.3-14c-4.7,0-9.2,3.3-10.4,8.5c-0.2,0.9-0.5,1.9-0.5,2.7V264.8z"/>
		<path fill="#002A47" d="M200.4,262.5c0.2,9.3,6,13.2,13,13.2c4.9,0,8-0.9,10.5-2l1.3,4.9c-2.4,1.1-6.7,2.4-12.7,2.4
			c-11.7,0-18.7-7.8-18.7-19.2c0-11.5,6.7-20.4,17.8-20.4c12.5,0,15.7,10.8,15.7,17.8c0,1.4-0.1,2.4-0.2,3.2H200.4z M220.7,257.5
			c0.1-4.3-1.8-11.1-9.6-11.1c-7.1,0-10,6.4-10.6,11.1H220.7z"/>
		<path fill="#002A47" d="M235.9,252.5c0-4-0.1-7.1-0.3-10.3h6.1l0.4,6.3h0.2c1.9-3.5,6.3-7.1,12.6-7.1c5.3,0,13.4,3.1,13.4,16.2
			v22.6h-6.9v-21.9c0-6.1-2.3-11.2-8.8-11.2c-4.5,0-8,3.2-9.3,7.1c-0.3,0.9-0.5,2-0.5,3.2v22.8h-6.9V252.5z"/>
		<path fill="#002A47" d="M279.6,228.1c4.2-0.7,9.1-1.2,14.5-1.2c9.8,0,16.8,2.4,21.4,6.6c4.8,4.3,7.5,10.4,7.5,19
			c0,8.6-2.7,15.7-7.6,20.6c-5,4.9-13.2,7.6-23.5,7.6c-4.9,0-8.9-0.2-12.4-0.6V228.1z M286.5,274.9c1.7,0.2,4.2,0.3,6.9,0.3
			c14.7,0,22.5-8.2,22.5-22.4c0.1-12.5-7-20.4-21.4-20.4c-3.5,0-6.2,0.3-8,0.7V274.9z"/>
		<path fill="#002A47" d="M358.3,271.1c0,3.3,0.2,6.5,0.5,9.1h-6.2l-0.5-4.8h-0.2c-2.1,3-6.2,5.6-11.6,5.6
			c-7.7,0-11.6-5.4-11.6-10.9c0-9.2,8.2-14.2,22.8-14.1v-0.8c0-3.1-0.9-8.8-8.6-8.7c-3.6,0-7.3,1-10,2.8l-1.6-4.6
			c3.1-2,7.8-3.3,12.6-3.3c11.6,0,14.4,7.9,14.4,15.5V271.1z M351.7,260.8c-7.5-0.2-16.1,1.2-16.1,8.5c0,4.6,3,6.6,6.4,6.6
			c5,0,8.2-3.1,9.3-6.4c0.2-0.8,0.3-1.6,0.3-2.2V260.8z"/>
		<path fill="#002A47" d="M377.5,233.1v9.1h9.9v5.3h-9.9V268c0,4.7,1.3,7.4,5.2,7.4c1.9,0,3-0.2,4-0.5l0.3,5.3
			c-1.3,0.5-3.5,0.9-6.1,0.9c-3.2,0-5.8-1.1-7.5-2.9c-1.9-2.1-2.7-5.5-2.7-10v-20.7h-5.9v-5.3h5.9v-7.1L377.5,233.1z"/>
		<path fill="#002A47" d="M421.8,271.1c0,3.3,0.2,6.5,0.5,9.1h-6.2l-0.5-4.8h-0.2c-2.1,3-6.2,5.6-11.6,5.6
			c-7.7,0-11.6-5.4-11.6-10.9c0-9.2,8.2-14.2,22.8-14.1v-0.8c0-3.1-0.9-8.8-8.6-8.7c-3.6,0-7.3,1-10,2.8l-1.6-4.6
			c3.1-2,7.8-3.3,12.6-3.3c11.6,0,14.4,7.9,14.4,15.5V271.1z M415.1,260.8c-7.5-0.2-16.1,1.2-16.1,8.5c0,4.6,3,6.6,6.4,6.6
			c5,0,8.2-3.1,9.3-6.4c0.2-0.8,0.3-1.6,0.3-2.2V260.8z"/>
	</g>
	<g>
		<path fill="#002A47" d="M224.1,292.2c1.5-0.2,3.5-0.4,6-0.4c3.1,0,5.3,0.7,6.7,2c1.3,1.1,2.1,2.9,2.1,5c0,2.2-0.7,3.9-1.9,5.1
			c-1.7,1.7-4.3,2.6-7.4,2.6c-0.9,0-1.8,0-2.5-0.2l0,9.6l-3.1,0L224.1,292.2z M227.2,303.8c0.7,0.2,1.5,0.3,2.6,0.3
			c3.8,0,6-1.8,6.1-5.1c0-3.2-2.3-4.8-5.7-4.8c-1.4,0-2.4,0.1-2.9,0.2L227.2,303.8z"/>
		<path fill="#002A47" d="M256.9,311.4c0,1.8,0,3.4,0.1,4.8l-2.8,0l-0.2-2.8H254c-0.8,1.4-2.7,3.2-5.7,3.2c-2.7,0-6-1.6-5.9-7.6
			l0-10.1l3.1,0l0,9.5c0,3.3,1,5.5,3.8,5.6c2.1,0,3.6-1.4,4.2-2.9c0.2-0.4,0.3-1,0.3-1.6l0-10.6l3.1,0L256.9,311.4z"/>
		<path fill="#002A47" d="M263.8,308.1c0.1,4.3,2.7,6,5.9,6c2.3,0,3.6-0.4,4.8-0.9l0.6,2.3c-1.1,0.5-3,1.1-5.8,1.1
			c-5.3,0-8.5-3.6-8.5-8.8c0-5.2,3.1-9.3,8.2-9.3c5.7,0,7.1,5,7.1,8.1c0,0.6,0,1.1-0.1,1.5L263.8,308.1z M273.1,305.9
			c0-2-0.8-5.1-4.3-5.1c-3.2,0-4.6,2.9-4.8,5.1L273.1,305.9z"/>
		<path fill="#002A47" d="M280.1,290.9l3.1,0l0,10.9h0.1c1.1-1.9,3.1-3.1,5.9-3.1c4.3,0,7.3,3.6,7.3,8.8c0,6.2-4,9.2-7.8,9.2
			c-2.5,0-4.5-1-5.8-3.2l-0.1,0l-0.2,2.8l-2.7,0c0.1-1.2,0.2-2.9,0.2-4.5L280.1,290.9z M283.1,309.3c0,0.4,0,0.8,0.1,1.1
			c0.6,2.2,2.4,3.7,4.7,3.7c3.3,0,5.3-2.7,5.3-6.6c0-3.5-1.8-6.4-5.2-6.5c-2.1,0-4.1,1.5-4.8,3.8c-0.1,0.4-0.2,0.8-0.2,1.3
			L283.1,309.3z"/>
		<path fill="#002A47" d="M300.4,291l3.1,0l-0.1,25.4l-3.1,0L300.4,291z"/>
		<path fill="#002A47" d="M320.9,312.3c0,1.5,0.1,3,0.2,4.1l-2.8,0l-0.2-2.2H318c-1,1.4-2.8,2.6-5.3,2.6c-3.5,0-5.3-2.5-5.3-5
			c0-4.2,3.7-6.5,10.4-6.4l0-0.4c0-1.4-0.4-4-3.9-4c-1.6,0-3.3,0.5-4.5,1.3l-0.7-2.1c1.4-0.9,3.5-1.5,5.7-1.5c5.3,0,6.6,3.6,6.5,7.1
			L320.9,312.3z M317.9,307.6c-3.4-0.1-7.3,0.5-7.3,3.9c0,2.1,1.3,3,2.9,3c2.3,0,3.8-1.4,4.3-2.9c0.1-0.4,0.1-0.7,0.1-1L317.9,307.6
			z"/>
	</g>
</g>
<g>
</g>
<g>
</g>
<g>
</g>
<g>
</g>
<g>
</g>
<g>
</g>
</svg>
